SplineFontDB: 3.2
FontName: Dunda-Regular
FullName: Dunda Regular
FamilyName: Dunda
Weight: Regular
Copyright: Copyright (c) 2004 by Johan Winge\n\nModified into Dunda for Lojban/Zbalermorna in 2020 by Jack Humbert.
Version: 1.10
ItalicAngle: 0
UnderlinePosition: -251
UnderlineWidth: 43
Ascent: 750
Descent: 250
InvalidEm: 0
sfntRevision: 0x00011999
LayerCount: 2
Layer: 0 0 "Back" 1
Layer: 1 0 "Fore" 0
XUID: [1021 647 -312734098 17743]
StyleMap: 0x0040
FSType: 0
OS2Version: 4
OS2_WeightWidthSlopeOnly: 0
OS2_UseTypoMetrics: 0
CreationTime: 1438840825
ModificationTime: 1589915171
PfmFamily: 33
TTFWeight: 400
TTFWidth: 5
LineGap: 0
VLineGap: 0
Panose: 2 15 5 2 2 2 4 3 2 3
OS2TypoAscent: 750
OS2TypoAOffset: 0
OS2TypoDescent: -250
OS2TypoDOffset: 0
OS2TypoLinegap: 198
OS2WinAscent: 816
OS2WinAOffset: 0
OS2WinDescent: 313
OS2WinDOffset: 0
HheadAscent: 750
HheadAOffset: 0
HheadDescent: -250
HheadDOffset: 0
OS2SubXSize: 692
OS2SubYSize: 642
OS2SubXOff: 0
OS2SubYOff: 138
OS2SupXSize: 692
OS2SupYSize: 642
OS2SupXOff: 0
OS2SupYOff: 471
OS2StrikeYSize: 44
OS2StrikeYPos: 272
OS2CapHeight: 750
OS2XHeight: 500
OS2Vendor: 'JH  '
OS2CodePages: 2002019f.00000000
OS2UnicodeRanges: 80000001.10000002.00000000.00000000
Lookup: 4 0 1 "zlmFF" { "zlmFF subtable"  } ['liga' ('latn' <'dflt' > 'DFLT' <'dflt' > ) ]
Lookup: 4 0 1 "zlmSFF" { "zlmSFF subtable"  } ['liga' ('latn' <'dflt' > 'DFLT' <'dflt' > ) ]
Lookup: 4 0 1 "zlmSF" { "zlmSF subtable"  } ['liga' ('latn' <'dflt' > 'DFLT' <'dflt' > ) ]

StartChar: exclam
Encoding: 1 33 1
Width: 265
VWidth: 988
Flags: W
HStem: -7 124<85.3302 177.735>
VStem: 70 124<7.33017 100.735> 91 84<247.796 708>
LayerCount: 2
Fore
SplineSet
175 708 m 1xa0
 175 425 l 2
 175 410 175 396 174 382 c 0
 173 368 173 353 172 339 c 0
 171 325 169 310 168 295 c 0
 167 280 165 264 163 247 c 1
 104 247 l 1
 102 264 100 280 99 295 c 0
 98 310 96 325 95 339 c 0
 94 353 93 368 92 382 c 0
 91 396 91 410 91 425 c 2
 91 708 l 1
 175 708 l 1xa0
70 54 m 0xc0
 70 63 72 71 75 79 c 0
 78 87 82 92 88 98 c 0
 94 104 100 109 107 112 c 0
 114 115 123 117 132 117 c 0
 141 117 149 115 156 112 c 0
 163 109 169 104 175 98 c 0xa0
 181 92 186 87 189 79 c 0
 192 71 194 63 194 54 c 0xc0
 194 45 192 37 189 30 c 0
 186 23 181 16 175 10 c 0xa0
 169 4 163 0 156 -3 c 0
 149 -6 141 -7 132 -7 c 0
 123 -7 114 -6 107 -3 c 0
 100 0 94 4 88 10 c 0
 82 16 78 23 75 30 c 0
 72 37 70 45 70 54 c 0xc0
EndSplineSet
EndChar

StartChar: question
Encoding: 13 63 2
Width: 442
VWidth: 988
Flags: W
HStem: -7 124<151.664 244.67> 644 72<126.004 280.688>
VStem: 136 124<6.33914 101.783> 170 61<247 306.111> 316 83<481.756 609.799>
LayerCount: 2
Fore
SplineSet
40 645 m 1xd8
 50 655 62 663 74 672 c 0
 86 681 99 688 114 695 c 0
 129 702 145 706 162 710 c 0
 179 714 197 716 217 716 c 0
 243 716 267 713 289 705 c 0
 311 697 331 686 347 672 c 0
 363 658 376 642 385 622 c 0
 394 602 399 580 399 555 c 0
 399 530 395 509 388 491 c 0
 381 473 370 457 359 443 c 0
 348 429 335 417 322 407 c 0
 309 397 297 388 285 379 c 0
 273 370 262 361 254 352 c 0
 246 343 241 334 240 323 c 2
 231 247 l 1
 170 247 l 1
 165 329 l 2
 164 344 166 357 173 368 c 0
 180 379 189 389 200 399 c 0
 211 409 223 419 237 428 c 0
 251 437 263 447 275 459 c 0
 287 471 296 483 304 498 c 0
 312 513 316 531 316 551 c 0
 316 565 314 577 308 589 c 0
 302 601 295 611 285 619 c 0
 275 627 264 633 251 637 c 0
 238 641 224 644 209 644 c 0
 189 644 172 641 158 636 c 0
 144 631 132 626 122 620 c 0
 112 614 104 609 98 604 c 0
 92 599 87 596 83 596 c 0
 75 596 68 600 63 608 c 2
 40 645 l 1xd8
136 54 m 0xe8
 136 63 138 71 141 79 c 0
 144 87 149 92 154 98 c 0
 159 104 165 109 173 112 c 0
 181 115 189 117 198 117 c 256
 207 117 214 115 222 112 c 0
 230 109 236 104 242 98 c 0
 248 92 252 87 255 79 c 0
 258 71 260 63 260 54 c 0
 260 45 258 37 255 30 c 0
 252 23 248 16 242 10 c 0
 236 4 230 0 222 -3 c 0
 214 -6 207 -7 198 -7 c 256
 189 -7 181 -6 173 -3 c 0
 165 0 159 4 154 10 c 0
 149 16 144 23 141 30 c 0
 138 37 136 45 136 54 c 0xe8
EndSplineSet
EndChar

StartChar: semicolon
Encoding: 10 59 3
Width: 258
VWidth: 988
Flags: W
HStem: 0 117<86.5171 133.97> 363 124<81.7397 175.783>
VStem: 67 124<378.33 471.67> 74 115<17.5186 99.4829>
LayerCount: 2
Fore
SplineSet
67 425 m 0xe0
 67 434 69 441 72 449 c 0
 75 457 80 463 85 469 c 0
 90 475 96 479 104 482 c 0
 112 485 119 487 128 487 c 256
 137 487 145 485 153 482 c 0
 161 479 166 475 172 469 c 0
 178 463 183 457 186 449 c 0
 189 441 191 434 191 425 c 0
 191 416 189 407 186 400 c 0
 183 393 178 387 172 381 c 0
 166 375 161 371 153 368 c 0
 145 365 137 363 128 363 c 256
 119 363 112 365 104 368 c 0
 96 371 90 375 85 381 c 0
 80 387 75 393 72 400 c 0
 69 407 67 416 67 425 c 0xe0
81 -120 m 2
 78 -118 77 -115 76 -113 c 0
 75 -111 74 -109 74 -106 c 0
 74 -104 75 -101 76 -99 c 0
 77 -97 80 -94 82 -92 c 0
 85 -88 89 -84 94 -78 c 0
 99 -72 105 -65 110 -57 c 0
 115 -49 120 -40 124 -30 c 0
 128 -20 132 -11 134 0 c 1
 133 0 132 0 131 0 c 0
 129 0 128 0 127 0 c 0
 110 0 97 6 86 17 c 0
 75 28 70 43 70 61 c 0
 70 76 75 89 86 100 c 0
 97 111 110 117 128 117 c 0
 138 117 147 115 155 111 c 0
 163 107 169 102 174 96 c 0
 179 90 182 82 185 74 c 0
 188 66 189 56 189 46 c 0xd0
 189 31 187 16 183 0 c 0
 179 -16 173 -31 165 -47 c 0
 157 -63 147 -78 135 -93 c 0
 123 -108 111 -121 96 -134 c 1
 81 -120 l 2
EndSplineSet
EndChar

StartChar: colon
Encoding: 9 58 4
Width: 247
VWidth: 988
Flags: W
HStem: -7 124<76.6639 169.67> 363 124<75.7397 170.661>
VStem: 62 123<6.33914 101.783 377.339 472.661>
LayerCount: 2
Fore
SplineSet
62 425 m 0
 62 434 63 441 66 449 c 0
 69 457 74 463 79 469 c 0
 84 475 91 479 99 482 c 0
 107 485 114 487 123 487 c 256
 132 487 139 485 147 482 c 0
 155 479 161 475 167 469 c 0
 173 463 177 457 180 449 c 0
 183 441 185 434 185 425 c 0
 185 416 183 407 180 400 c 0
 177 393 173 387 167 381 c 0
 161 375 155 371 147 368 c 0
 139 365 132 363 123 363 c 256
 114 363 107 365 99 368 c 0
 91 371 84 375 79 381 c 0
 74 387 69 393 66 400 c 0
 63 407 62 416 62 425 c 0
62 54 m 0
 62 63 63 71 66 79 c 0
 69 87 74 92 79 98 c 0
 84 104 91 109 99 112 c 0
 107 115 114 117 123 117 c 256
 132 117 139 115 147 112 c 0
 155 109 161 104 167 98 c 0
 173 92 177 87 180 79 c 0
 183 71 185 63 185 54 c 0
 185 45 183 37 180 30 c 0
 177 23 173 16 167 10 c 0
 161 4 155 0 147 -3 c 0
 139 -6 132 -7 123 -7 c 256
 114 -7 107 -6 99 -3 c 0
 91 0 84 4 79 10 c 0
 74 16 69 23 66 30 c 0
 63 37 62 45 62 54 c 0
EndSplineSet
EndChar

StartChar: guillemotleft
Encoding: 18 171 5
Width: 423
VWidth: 988
Flags: W
VStem: 49 312
LayerCount: 2
Fore
SplineSet
356 115 m 2
 361 107 362 100 361 93 c 0
 360 86 355 82 347 78 c 2
 319 64 l 1
 196 256 l 1
 196 267 l 1
 319 459 l 1
 347 446 l 2
 355 442 360 437 361 430 c 0
 362 423 361 417 356 409 c 2
 278 280 l 2
 273 272 269 266 264 262 c 1
 269 258 273 252 278 244 c 2
 356 115 l 2
210 115 m 2
 215 107 216 100 215 93 c 0
 214 86 209 82 201 78 c 2
 172 64 l 1
 49 256 l 1
 49 267 l 1
 172 459 l 1
 201 446 l 2
 209 442 214 437 215 430 c 0
 216 423 215 417 210 409 c 2
 132 280 l 2
 127 272 123 266 118 262 c 1
 123 258 127 252 132 244 c 2
 210 115 l 2
EndSplineSet
EndChar

StartChar: guillemotright
Encoding: 19 187 6
Width: 424
VWidth: 988
Flags: W
VStem: 63 312
LayerCount: 2
Fore
SplineSet
375 267 m 1
 375 256 l 1
 252 64 l 1
 223 78 l 2
 215 82 211 86 210 93 c 0
 209 100 209 107 214 115 c 2
 292 244 l 2
 295 248 298 251 300 254 c 0
 302 257 304 260 307 262 c 1
 304 264 302 266 300 269 c 0
 298 272 295 276 292 280 c 2
 214 409 l 2
 209 417 209 423 210 430 c 0
 211 437 215 442 223 446 c 2
 252 459 l 1
 375 267 l 1
229 267 m 1
 229 256 l 1
 106 64 l 1
 77 78 l 2
 69 82 64 86 63 93 c 0
 62 100 63 107 68 115 c 2
 146 244 l 2
 149 248 151 251 153 254 c 0
 155 257 158 260 161 262 c 1
 158 264 155 266 153 269 c 0
 151 272 149 276 146 280 c 2
 68 409 l 2
 63 417 62 423 63 430 c 0
 64 437 69 442 77 446 c 2
 106 459 l 1
 229 267 l 1
EndSplineSet
EndChar

StartChar: parenleft
Encoding: 7 40 7
Width: 263
VWidth: 988
Flags: W
VStem: 44 77<126.503 494.728>
LayerCount: 2
Fore
SplineSet
121 311 m 256
 121 241 130 172 148 105 c 0
 166 38 192 -24 227 -84 c 0
 232 -94 234 -103 231 -108 c 0
 228 -113 224 -118 219 -121 c 2
 180 -145 l 1
 155 -107 134 -69 117 -32 c 0
 100 5 86 42 75 80 c 0
 64 118 57 155 52 193 c 0
 47 231 44 271 44 311 c 0
 44 351 47 390 52 428 c 0
 57 466 64 504 75 541 c 0
 86 578 100 616 117 653 c 0
 134 690 155 728 180 766 c 1
 219 742 l 2
 224 739 228 734 231 729 c 0
 234 724 232 716 227 706 c 0
 192 646 166 583 148 516 c 0
 130 449 121 381 121 311 c 256
EndSplineSet
EndChar

StartChar: parenright
Encoding: 8 41 8
Width: 263
VWidth: 988
Flags: W
VStem: 143 76<126.503 494.728>
LayerCount: 2
Fore
SplineSet
143 311 m 256
 143 381 134 449 116 516 c 0
 98 583 72 646 37 706 c 0
 34 711 33 715 32 719 c 0
 31 723 32 726 33 729 c 0
 34 732 35 734 37 736 c 0
 39 738 41 740 44 742 c 2
 83 766 l 1
 108 728 129 690 146 653 c 0
 163 616 177 578 188 541 c 0
 199 504 207 466 212 428 c 0
 217 390 219 351 219 311 c 0
 219 271 217 231 212 193 c 0
 207 155 199 118 188 80 c 0
 177 42 163 5 146 -32 c 0
 129 -69 108 -107 83 -145 c 1
 44 -121 l 2
 41 -119 39 -117 37 -115 c 0
 35 -113 34 -111 33 -108 c 0
 32 -105 31 -102 32 -98 c 0
 33 -94 34 -89 37 -84 c 0
 72 -24 98 38 116 105 c 0
 134 172 143 241 143 311 c 256
EndSplineSet
EndChar

StartChar: bracketleft
Encoding: 14 91 9
Width: 302
VWidth: 988
Flags: W
HStem: -143 59<164 271.895> 700 57<164 264.811>
VStem: 90 182<-143 -84.0731 706.189 757> 90 74<-84 700>
LayerCount: 2
Fore
SplineSet
164 700 m 1xd0
 164 -84 l 1xd0
 248 -84 l 2
 255 -84 261 -86 265 -91 c 0
 269 -96 272 -101 272 -108 c 2
 272 -143 l 1
 90 -143 l 1
 90 757 l 1
 272 757 l 1
 272 723 l 2xe0
 272 716 269 710 265 706 c 0
 261 702 255 700 248 700 c 2
 164 700 l 1xd0
EndSplineSet
EndChar

StartChar: bracketright
Encoding: 15 93 10
Width: 302
VWidth: 988
Flags: W
HStem: -143 59<37.1897 138> 700 57<37.1897 138>
VStem: 31 181<-143 -91.2344 706.189 757> 138 74<-84 700>
LayerCount: 2
Fore
SplineSet
212 -143 m 1xe0
 31 -143 l 1
 31 -108 l 2xe0
 31 -101 33 -96 37 -91 c 0
 41 -86 48 -84 55 -84 c 2
 138 -84 l 1
 138 700 l 1xd0
 55 700 l 2
 48 700 41 702 37 706 c 0
 33 710 31 716 31 723 c 2
 31 757 l 1
 212 757 l 1
 212 -143 l 1xe0
EndSplineSet
EndChar

StartChar: braceleft
Encoding: 16 123 11
Width: 297
VWidth: 988
Flags: W
HStem: -143 59<177.599 265> 281 53<34 82.4353> 700 57<178.583 265>
VStem: 76 77<-59.3574 166.544 448.717 674.199> 101 75<57.801 260.388 352.411 556.357>
LayerCount: 2
Fore
SplineSet
235 700 m 2xf0
 209 700 189 692 175 675 c 0
 161 658 153 635 153 607 c 0xf0
 153 589 155 571 157 554 c 0
 159 537 162 520 165 504 c 0
 168 488 170 471 172 455 c 0
 174 439 176 422 176 406 c 0
 176 394 174 383 170 372 c 0
 166 361 162 352 155 343 c 0
 148 334 140 327 131 321 c 0
 122 315 112 310 101 307 c 1
 112 304 122 300 131 294 c 0
 140 288 148 281 155 272 c 0
 162 263 166 254 170 243 c 0
 174 232 176 221 176 209 c 0xe8
 176 193 174 176 172 160 c 0
 170 144 168 127 165 111 c 0
 162 95 159 78 157 61 c 0
 155 44 153 26 153 8 c 0
 153 -21 161 -44 175 -60 c 0
 189 -76 209 -84 235 -84 c 2
 245 -84 l 2
 249 -84 253 -86 258 -89 c 0
 263 -92 265 -96 265 -103 c 2
 265 -143 l 1
 238 -143 l 2
 211 -143 188 -139 168 -131 c 0
 148 -123 131 -113 117 -99 c 0
 103 -85 93 -68 86 -49 c 0
 79 -30 76 -10 76 13 c 0xf0
 76 30 77 47 80 63 c 0
 83 79 85 96 88 112 c 0
 91 128 94 145 97 161 c 0
 100 177 101 194 101 210 c 0
 101 231 95 248 83 261 c 0
 71 274 56 281 34 281 c 1
 34 334 l 1
 56 334 71 341 83 354 c 0
 95 367 101 384 101 405 c 0xe8
 101 421 100 438 97 454 c 0
 94 470 91 486 88 502 c 0
 85 518 83 535 80 551 c 0
 77 567 76 585 76 602 c 0
 76 625 79 646 86 665 c 0
 93 684 103 700 117 714 c 0
 131 728 148 738 168 746 c 0
 188 754 211 757 238 757 c 2
 265 757 l 1
 265 718 l 2
 265 711 263 707 258 704 c 0
 253 701 249 700 245 700 c 2
 235 700 l 2xf0
EndSplineSet
EndChar

StartChar: braceright
Encoding: 17 125 12
Width: 297
VWidth: 988
Flags: W
HStem: -143 59<33 120.336> 281 53<214.565 264> 700 57<33 120.293>
VStem: 122 75<50.5252 260.388 354.612 563.661> 144 77<-59.7835 173.808 441.192 674.788>
LayerCount: 2
Fore
SplineSet
264 281 m 1xf0
 242 281 226 274 214 261 c 0
 202 248 197 231 197 210 c 0xf0
 197 194 198 177 201 161 c 0
 204 145 206 128 209 112 c 0
 212 96 214 79 217 63 c 0
 220 47 221 30 221 13 c 0
 221 -10 218 -30 211 -49 c 0
 204 -68 195 -85 181 -99 c 0
 167 -113 150 -123 130 -131 c 0
 110 -139 86 -143 59 -143 c 2
 33 -143 l 1
 33 -103 l 2
 33 -96 35 -92 40 -89 c 0
 45 -86 48 -84 52 -84 c 2
 62 -84 l 2
 88 -84 109 -76 123 -60 c 0
 137 -44 144 -21 144 8 c 0xe8
 144 26 143 44 141 61 c 0
 139 78 136 95 133 111 c 0
 130 127 127 144 125 160 c 0
 123 176 122 193 122 209 c 0
 122 221 123 232 127 243 c 0
 131 254 136 263 143 272 c 0
 150 281 157 288 166 294 c 0
 175 300 185 304 196 307 c 1
 185 310 175 315 166 321 c 0
 157 327 150 334 143 343 c 0
 136 352 131 361 127 372 c 0
 123 383 122 394 122 406 c 0xf0
 122 422 123 439 125 455 c 0
 127 471 130 488 133 504 c 0
 136 520 139 537 141 554 c 0
 143 571 144 589 144 607 c 0
 144 635 137 658 123 675 c 0
 109 692 88 700 62 700 c 2
 52 700 l 2
 48 700 45 701 40 704 c 0
 35 707 33 711 33 718 c 2
 33 757 l 1
 59 757 l 2
 86 757 110 754 130 746 c 0
 150 738 167 728 181 714 c 0
 195 700 204 684 211 665 c 0
 218 646 221 625 221 602 c 0xe8
 221 585 220 567 217 551 c 0
 214 535 212 518 209 502 c 0
 206 486 204 470 201 454 c 0
 198 438 197 421 197 405 c 0
 197 384 202 367 214 354 c 0
 226 341 242 334 264 334 c 1
 264 281 l 1xf0
EndSplineSet
EndChar

StartChar: quotedbl
Encoding: 2 34 13
Width: 366
VWidth: 988
Flags: W
HStem: 455 253<80.2358 121.81 237.861 286.81>
VStem: 63 76<497.625 708> 227 77<497.625 708>
LayerCount: 2
Fore
SplineSet
304 708 m 1
 304 565 l 1
 296 488 l 2
 294 477 291 470 287 464 c 0
 283 458 275 455 265 455 c 0
 256 455 250 458 245 464 c 0
 240 470 237 477 235 488 c 2
 227 565 l 1
 227 708 l 1
 304 708 l 1
139 708 m 1
 139 565 l 1
 131 488 l 2
 129 477 126 470 122 464 c 0
 118 458 111 455 101 455 c 0
 92 455 85 458 80 464 c 0
 75 470 73 477 71 488 c 2
 63 565 l 1
 63 708 l 1
 139 708 l 1
EndSplineSet
EndChar

StartChar: ampersand
Encoding: 6 38 14
Width: 703
VWidth: 988
Flags: W
HStem: -8 72<193.058 373.896> 0 21G<605 695> 647 69<260.278 393.141>
VStem: 43 90<122.105 273.694> 139 83<467.847 608.973> 429 79<565 610.907> 541 74<253.011 358.812>
LayerCount: 2
Fore
SplineSet
239 349 m 1xbe
 204 331 178 308 160 282 c 0
 142 256 133 227 133 196 c 0
 133 175 137 155 145 139 c 0
 153 123 163 109 176 98 c 0
 189 87 204 78 220 72 c 0
 236 66 254 64 271 64 c 0
 308 64 341 70 370 84 c 0
 399 98 426 115 448 138 c 1
 239 349 l 1xbe
695 0 m 1x7e
 610 0 l 2x7e
 600 0 592 1 586 3 c 0
 580 5 574 11 567 18 c 2
 496 90 l 1
 465 60 429 37 389 19 c 0
 349 1 303 -8 255 -8 c 0xbe
 229 -8 203 -4 178 5 c 0
 153 14 130 27 110 44 c 0
 90 61 74 82 62 106 c 0
 50 130 43 158 43 189 c 0
 43 212 47 233 55 254 c 0
 63 275 73 294 87 311 c 0
 101 328 117 344 136 358 c 0
 155 372 176 384 198 394 c 1
 178 420 164 444 154 468 c 0
 144 492 139 516 139 542 c 0
 139 566 143 589 152 610 c 0
 161 631 174 649 190 665 c 0
 206 681 226 693 250 702 c 0
 274 711 301 716 330 716 c 0
 356 716 380 711 401 703 c 0
 422 695 441 684 456 670 c 0
 471 656 484 640 493 622 c 0
 502 604 507 585 508 565 c 1
 454 554 l 2
 443 551 434 556 429 569 c 0
 427 578 423 587 418 596 c 0
 413 605 406 613 398 621 c 0
 390 629 380 635 369 640 c 0
 358 645 345 647 330 647 c 0
 314 647 298 644 285 639 c 0
 272 634 260 626 251 617 c 0
 242 608 234 597 229 584 c 0
 224 571 222 558 222 543 c 0
 222 531 223 521 226 510 c 0
 229 499 232 489 238 478 c 0
 244 467 251 456 260 445 c 0
 269 434 279 422 292 409 c 2
 496 202 l 1
 509 224 518 248 526 272 c 0
 534 296 539 320 541 344 c 0
 542 350 544 355 547 359 c 0
 550 363 555 365 561 365 c 2
 615 365 l 1
 615 327 609 289 597 253 c 0
 585 217 569 183 547 151 c 1
 695 0 l 1x7e
EndSplineSet
EndChar

StartChar: dollar
Encoding: 4 36 15
Width: 573
VWidth: 988
Flags: W
HStem: -6 74<178.119 242 303 375.927> 639 75<213.623 287 347 405.135>
VStem: 79 83<467.547 591.953> 436 84<125.083 262.509>
LayerCount: 2
Fore
SplineSet
303 68 m 1
 325 70 344 75 360 82 c 0
 376 89 391 98 402 110 c 0
 413 122 422 135 428 150 c 0
 434 165 436 183 436 201 c 0
 436 217 433 232 427 244 c 0
 421 256 413 265 402 274 c 0
 391 283 379 291 365 297 c 0
 351 303 336 309 320 314 c 1
 303 68 l 1
287 639 m 1
 266 637 247 633 231 626 c 0
 215 619 202 611 192 601 c 0
 182 591 174 580 169 568 c 0
 164 556 162 543 162 529 c 0
 162 513 164 500 170 488 c 0
 176 476 184 466 194 457 c 0
 204 448 215 441 228 434 c 0
 241 427 256 421 271 416 c 1
 287 639 l 1
326 399 m 1
 350 391 373 384 396 375 c 0
 419 366 440 355 458 341 c 0
 476 327 492 311 503 291 c 0
 514 271 520 245 520 215 c 0
 520 185 515 157 505 131 c 0
 495 105 481 83 462 63 c 0
 443 43 420 27 392 15 c 0
 364 3 333 -5 298 -7 c 1
 292 -94 l 2
 292 -100 290 -105 285 -110 c 0
 280 -115 274 -118 267 -118 c 2
 235 -118 l 1
 242 -6 l 1
 202 -2 166 7 133 23 c 0
 100 39 72 59 48 84 c 1
 75 125 l 2
 78 129 81 132 85 134 c 0
 89 136 93 137 98 137 c 0
 104 137 111 134 119 128 c 0
 127 122 136 115 148 107 c 0
 160 99 174 91 190 83 c 0
 206 75 226 71 248 68 c 1
 265 331 l 1
 242 338 219 345 197 354 c 0
 175 363 156 374 138 388 c 0
 120 402 106 420 95 441 c 0
 84 462 79 488 79 520 c 0
 79 544 84 568 93 591 c 0
 102 614 116 634 134 652 c 0
 152 670 175 684 201 695 c 0
 227 706 258 713 292 714 c 1
 296 786 l 2
 296 792 300 797 304 802 c 0
 308 807 314 810 321 810 c 2
 354 810 l 1
 347 712 l 1
 381 708 412 700 437 686 c 0
 462 672 484 655 503 636 c 1
 482 604 l 2
 475 594 468 589 459 589 c 0
 454 589 449 591 442 595 c 0
 435 599 427 604 418 610 c 0
 409 616 398 621 385 626 c 0
 372 631 358 635 342 638 c 1
 326 399 l 1
EndSplineSet
EndChar

StartChar: numbersign
Encoding: 3 35 16
Width: 573
VWidth: 988
Flags: W
HStem: 0 21G<83 127 308 354.019> 209 65<33 125 207 319 401 509> 435 65<69.2835 166 248 361 443 528.717>
VStem: 284 66<0.354492 34.8333>
LayerCount: 2
Fore
SplineSet
361 435 m 1
 239 435 l 1
 207 274 l 1
 329 274 l 1
 361 435 l 1
547 500 m 1
 541 462 l 2
 539 452 535 445 529 441 c 0
 523 437 514 435 501 435 c 2
 433 435 l 1
 401 274 l 1
 490 274 l 2
 500 274 506 271 510 266 c 0
 514 261 515 251 513 237 c 2
 509 209 l 1
 392 209 l 1
 350 0 l 1
 310 0 l 2
 306 0 302 1 298 3 c 0
 294 5 291 8 289 11 c 0
 287 14 285 18 284 23 c 0
 283 28 283 32 284 38 c 2
 319 209 l 1
 197 209 l 1
 162 34 l 2
 160 22 156 13 148 8 c 0
 140 3 132 0 122 0 c 2
 83 0 l 1
 125 209 l 1
 52 209 l 2
 43 209 36 212 32 217 c 0
 28 222 27 232 29 246 c 2
 33 274 l 1
 134 274 l 1
 166 435 l 1
 51 435 l 1
 58 471 l 2
 60 481 63 488 69 493 c 0
 75 498 84 500 97 500 c 2
 175 500 l 1
 211 676 l 2
 213 686 218 694 225 700 c 0
 232 706 240 708 250 708 c 2
 290 708 l 1
 248 500 l 1
 370 500 l 1
 412 708 l 1
 451 708 l 2
 461 708 468 705 473 699 c 0
 478 693 481 685 479 675 c 2
 443 500 l 1
 547 500 l 1
EndSplineSet
EndChar

StartChar: less
Encoding: 11 60 17
Width: 573
VWidth: 988
Flags: W
LayerCount: 2
Fore
SplineSet
222 348 m 2
 215 345 208 342 201 339 c 0
 194 336 186 335 177 333 c 1
 186 331 194 328 201 326 c 0
 208 324 215 321 222 317 c 2
 444 205 l 2
 451 202 455 197 458 193 c 0
 461 189 462 184 462 179 c 2
 462 116 l 1
 80 314 l 1
 80 351 l 1
 462 549 l 1
 462 486 l 2
 462 480 461 476 458 472 c 0
 455 468 451 463 444 460 c 2
 222 348 l 2
EndSplineSet
EndChar

StartChar: greater
Encoding: 12 62 18
Width: 573
VWidth: 988
Flags: W
LayerCount: 2
Fore
SplineSet
493 351 m 1
 493 314 l 1
 111 116 l 1
 111 179 l 2
 111 184 112 189 115 193 c 0
 118 197 122 202 129 205 c 2
 351 317 l 2
 358 321 365 324 372 326 c 0
 379 328 387 331 395 333 c 1
 378 337 364 341 351 348 c 2
 129 460 l 2
 122 463 118 468 115 472 c 0
 112 476 111 480 111 486 c 2
 111 549 l 1
 493 351 l 1
EndSplineSet
EndChar

StartChar: percent
Encoding: 5 37 19
Width: 791
VWidth: 988
Flags: W
HStem: -8 58<533.158 650.141> 0 21G<90 158.5> 287 58<533.551 649.401> 361 58<143.201 257.604> 657 58<142.551 258.355>
VStem: 43 69<451.653 624.03> 289 68<451.653 624.03> 435 69<80.0546 255.356> 680 69<81.7384 254.115>
LayerCount: 2
Fore
SplineSet
357 537 m 0x3f80
 357 509 353 485 344 463 c 0
 335 441 324 422 310 407 c 0
 296 392 279 381 260 373 c 0
 241 365 221 361 200 361 c 0
 178 361 157 365 138 373 c 0
 119 381 102 392 88 407 c 0
 74 422 63 441 55 463 c 0
 47 485 43 509 43 537 c 0
 43 565 47 591 55 613 c 0
 63 635 74 653 88 668 c 0
 102 683 119 695 138 703 c 0
 157 711 178 715 200 715 c 0
 222 715 243 711 262 703 c 0
 281 695 298 683 312 668 c 0
 326 653 337 635 345 613 c 0
 353 591 357 565 357 537 c 0x3f80
289 537 m 0
 289 559 287 577 282 592 c 0
 277 607 271 620 263 630 c 0
 255 640 245 647 234 651 c 0
 223 655 212 657 200 657 c 256
 188 657 177 655 166 651 c 0
 155 647 146 640 138 630 c 0
 130 620 124 607 119 592 c 0
 114 577 112 559 112 537 c 0
 112 516 114 497 119 482 c 0
 124 467 130 455 138 446 c 0
 146 437 155 430 166 426 c 0
 177 422 188 419 200 419 c 256
 212 419 223 422 234 426 c 0
 245 430 255 437 263 446 c 0
 271 455 277 467 282 482 c 0
 287 497 289 516 289 537 c 0
607 693 m 2
 610 697 615 701 619 704 c 0
 623 707 629 708 637 708 c 2
 701 708 l 1
 183 14 l 2
 180 10 176 7 171 4 c 0
 166 1 162 0 155 0 c 2
 90 0 l 1x7f80
 607 693 l 2
749 167 m 0
 749 139 745 115 736 93 c 0
 727 71 715 53 701 38 c 0
 687 23 670 11 651 3 c 0
 632 -5 612 -8 591 -8 c 0xbf80
 569 -8 548 -5 529 3 c 0
 510 11 494 23 480 38 c 0
 466 53 455 71 447 93 c 0
 439 115 435 139 435 167 c 0
 435 195 439 221 447 243 c 0
 455 265 466 284 480 299 c 0
 494 314 510 325 529 333 c 0
 548 341 569 345 591 345 c 0
 613 345 634 341 653 333 c 0
 672 325 689 314 703 299 c 0
 717 284 728 265 736 243 c 0
 744 221 749 195 749 167 c 0
680 167 m 0
 680 189 678 208 673 223 c 0
 668 238 662 250 654 260 c 0
 646 270 637 277 626 281 c 0
 615 285 603 287 591 287 c 256
 579 287 568 285 557 281 c 0
 546 277 537 270 529 260 c 0
 521 250 515 238 511 223 c 0
 507 208 504 189 504 167 c 0
 504 146 507 128 511 113 c 0
 515 98 521 85 529 76 c 0
 537 67 546 60 557 56 c 0
 568 52 579 50 591 50 c 256
 603 50 615 52 626 56 c 0
 637 60 646 67 654 76 c 0
 662 85 668 98 673 113 c 0
 678 128 680 146 680 167 c 0
EndSplineSet
EndChar

StartChar: NameMe.66773
Encoding: 256 -1 20
Width: 551
VWidth: 988
Flags: W
HStem: 0 21G<70 126.5 398 487> 480 20G<422 487>
VStem: 70 88<144.421 728> 398 89<0 357.625>
LayerCount: 2
Fore
SplineSet
70 728 m 1
 158 728 l 1
 158 192 l 2
 157 169 l 0
 157 161 157 153 156 144 c 1
 400 484 l 2
 402 486 404 489 407 492 c 0
 409 494 412 496 414 497 c 0
 416 498 420 500 424 500 c 0
 428 500 433 500 437 500 c 2
 487 500 l 1
 487 0 l 1
 398 0 l 1
 398 312 l 2
 399 334 l 0
 399 342 399 350 400 358 c 1
 156 17 l 2
 154 14 149 10 141 4 c 0
 137 1 131 0 122 0 c 2
 70 0 l 1
 70 728 l 1
EndSplineSet
EndChar

StartChar: NameMe.66774
Encoding: 257 -1 21
Width: 551
VWidth: 988
Flags: W
HStem: 0 21G<70 126.5> 480 20G<70 158 422 487>
VStem: 70 88<144.421 500> 398 89<-169 357.625>
LayerCount: 2
Fore
SplineSet
70 500 m 1
 158 500 l 1
 158 192 l 2
 158 185 157 177 157 169 c 0
 157 161 157 153 156 144 c 1
 400 484 l 2
 402 486 404 489 407 492 c 0
 409 494 412 496 414 497 c 0
 416 498 420 500 424 500 c 0
 428 500 433 500 437 500 c 2
 487 500 l 1
 487 -169 l 1
 398 -169 l 1
 398 312 l 2
 398 319 399 326 399 334 c 0
 399 342 399 350 400 358 c 1
 156 17 l 2
 154 14 149 10 141 4 c 0
 137 1 131 0 122 0 c 2
 70 0 l 1
 70 500 l 1
EndSplineSet
EndChar

StartChar: NameMe.66777
Encoding: 258 -1 22
Width: 415
VWidth: 988
Flags: W
HStem: 0 21G<101 125.5 298.5 357> 480 20G<269 357>
VStem: 70 88<64 728> 269 88<109.359 500> 281 76<0.0703125 72>
LayerCount: 2
Fore
SplineSet
158 64 m 1xe8
 175 67 192 73 207 81 c 0
 230 93 250 110 269 132 c 1
 269 500 l 1
 357 500 l 1xf0
 357 0 l 1
 305 0 l 2
 292 0 284 6 281 18 c 1
 274 72 l 1
 252 48 228 29 201 16 c 0
 174 3 143 -3 108 -3 c 0
 94 -3 82 -2 70 -0 c 1
 70 32 70 32 70 728 c 1
 158 728 l 1
 158 64 l 1xe8
EndSplineSet
EndChar

StartChar: NameMe.66775
Encoding: 259 -1 23
Width: 415
VWidth: 988
Flags: W
HStem: 0 21G<70 150.5> 480 20G<272 357>
VStem: 70 88<76 728> 272 85<126.563 500>
LayerCount: 2
Fore
SplineSet
158 76 m 17
 234 89 272 132 272 204 c 10
 272 500 l 1
 357 500 l 1
 357 202 l 2
 357 141 335 92 292 56 c 0
 248 19 188 0 113 0 c 2
 70 0 l 1
 70 728 l 1
 158 728 l 1
 158 76 l 17
EndSplineSet
EndChar

StartChar: NameMe.66778
Encoding: 260 -1 24
Width: 415
VWidth: 988
Flags: W
HStem: 0 21G<70 158> 480 20G<70 128.5 301.5 326>
VStem: 70 88<0 391.641> 70 76<428 499.93> 269 88<-169 436>
LayerCount: 2
Fore
SplineSet
269 436 m 1xd8
 252 433 235 428 220 420 c 0
 197 408 177 391 158 369 c 1
 158 0 l 1
 70 0 l 1xe8
 70 500 l 1
 122 500 l 2
 135 500 143 494 146 482 c 1
 153 428 l 1
 175 452 199 471 226 484 c 0
 253 497 284 504 319 504 c 0
 333 504 345 503 357 501 c 1
 357 498 357 498 357 -169 c 1
 269 -169 l 1
 269 436 l 1xd8
EndSplineSet
EndChar

StartChar: NameMe.66776
Encoding: 261 -1 25
Width: 415
VWidth: 988
Flags: W
HStem: 0 21G<70 155> 480 20G<276.5 357>
VStem: 70 85<0 372.088> 269 88<-169 424>
LayerCount: 2
Fore
SplineSet
269 424 m 17
 193 411 155 368 155 296 c 10
 155 0 l 1
 70 0 l 1
 70 299 l 2
 70 360 92 409 135 445 c 0
 179 482 239 500 314 500 c 2
 357 500 l 1
 357 -169 l 1
 269 -169 l 1
 269 424 l 17
EndSplineSet
EndChar

StartChar: NameMe.66779
Encoding: 262 -1 26
Width: 550
VWidth: 988
Flags: W
HStem: 0 78<158 275.633> 480 20G<70 158 398 487>
VStem: 70 88<78 500> 398 89<178.004 500> 409 78<0.287109 140>
LayerCount: 2
Fore
SplineSet
403 140 m 1xe8
 356 47 272 0 150 0 c 0
 110 0 110 0 70 0 c 1
 70 77 l 2
 70 466 l 0
 70 500 l 1
 158 500 l 0
 158 78 l 0
 162 78 l 2
 267 78 338 111 377 178 c 0
 385 191 392 207 398 224 c 1
 398 500 l 1
 487 500 l 1xf0
 487 0 l 1
 436 0 l 2
 419 0 410 8 409 24 c 2
 403 140 l 1xe8
EndSplineSet
EndChar

StartChar: NameMe.66780
Encoding: 263 -1 27
Width: 550
VWidth: 988
Flags: W
HStem: 0 77<158 218.839> 480 20G<70 158 403.5 487>
VStem: 70 88<77 500> 398 89<0 359>
LayerCount: 2
Fore
SplineSet
487 500 m 1
 487 0 l 1
 443 0 442 0 398 0 c 1
 398 282 l 2
 398 316 399 338 400 347 c 0
 401 351 402 355 402 359 c 257
 369 120 281 0 139 0 c 2
 70 0 l 1
 70 500 l 1
 158 500 l 1
 158 77 l 1
 258 77 334 213 384 483 c 0
 386 495 395 500 412 500 c 2
 487 500 l 1
EndSplineSet
EndChar

StartChar: NameMe.66781
Encoding: 264 -1 28
Width: 359
VWidth: 988
Flags: W
HStem: 0 21G<70 158> 423 86<222.581 345.904>
VStem: 70 88<0 362.216 401 728>
LayerCount: 2
Fore
SplineSet
158 728 m 5
 158 460 l 4
 158 401 l 5
 173 435 191 461 213 480 c 4
 235 499 262 509 295 509 c 4
 306 509 316 508 326 506 c 4
 336 504 344 501 352 496 c 5
 346 430 l 5
 344 421 339 417 331 417 c 4
 326 417 319 418 310 420 c 4
 301 422 292 423 281 423 c 4
 265 423 250 421 238 416 c 4
 226 411 215 404 205 395 c 4
 195 386 187 374 179 361 c 4
 171 348 165 332 158 315 c 5
 158 0 l 5
 100 0 l 4
 70 0 l 5
 70 728 l 5
 158 728 l 5
EndSplineSet
EndChar

StartChar: NameMe.66782
Encoding: 265 -1 29
Width: 359
VWidth: 988
Flags: W
HStem: -7 87<26.0967 149.419> 480 20G<214 302>
VStem: 214 88<-169 101 139.784 500>
LayerCount: 2
Fore
SplineSet
214 -169 m 1
 214 42 l 0
 214 101 l 1
 199 67 181 41 159 22 c 0
 137 3 110 -7 77 -7 c 0
 66 -7 56 -5 46 -3 c 0
 36 -1 28 2 20 7 c 1
 26 73 l 1
 28 82 34 85 42 85 c 0
 47 85 53 85 62 83 c 0
 71 81 80 80 91 80 c 0
 107 80 122 82 134 87 c 0
 146 92 157 98 167 107 c 0
 177 116 185 128 193 141 c 0
 201 154 207 170 214 187 c 1
 214 500 l 1
 272 500 l 0
 302 500 l 1
 302 -169 l 1
 214 -169 l 1
EndSplineSet
EndChar

StartChar: NameMe.66783
Encoding: 266 -1 30
Width: 471
VWidth: 988
Flags: W
HStem: -174 68<223.104 376.686> 440 68<226.167 378.785>
VStem: 56 90<-1.39722 336.01>
LayerCount: 2
Fore
SplineSet
432 412 m 2
 429 408 427 405 424 403 c 0
 421 401 419 400 414 400 c 0
 409 400 403 402 397 406 c 0
 391 410 384 415 376 420 c 0
 368 425 357 430 345 434 c 0
 333 438 319 440 302 440 c 0
 276 440 253 435 234 424 c 0
 215 413 198 397 185 375 c 0
 172 353 162 324 156 290 c 0
 150 256 146 214 146 167 c 0
 146 117 150 75 157 40 c 0
 164 5 174 -23 187 -45 c 0
 200 -67 217 -82 236 -92 c 0
 255 -102 277 -106 302 -106 c 0
 321 -106 336 -104 349 -99 c 0
 362 -94 371 -88 380 -82 c 0
 389 -76 396 -69 402 -64 c 0
 408 -59 414 -57 420 -57 c 0
 424 -57 427 -58 430 -59 c 0
 433 -60 435 -62 437 -65 c 2
 461 -97 l 1
 450 -111 439 -122 425 -132 c 0
 411 -142 396 -150 381 -156 c 0
 366 -162 350 -167 334 -170 c 0
 318 -173 302 -174 287 -174 c 0
 253 -174 221 -168 193 -156 c 0
 165 -144 141 -124 121 -97 c 0
 101 -70 84 -35 73 7 c 0
 62 49 56 101 56 162 c 0
 56 276 76 361 117 420 c 0
 158 479 217 508 294 508 c 0
 328 508 358 502 385 491 c 0
 412 480 435 464 456 443 c 1
 432 412 l 2
EndSplineSet
EndChar

StartChar: NameMe.66784
Encoding: 267 -1 31
Width: 446
VWidth: 988
Flags: W
HStem: -179 67<166.628 313.656> 432 68<29 293>
VStem: 30 75<-50.9284 116.254>
LayerCount: 2
Fore
SplineSet
293 432 m 1
 29 432 l 1
 29 500 l 1
 406 500 l 1
 406 464 l 2
 406 460 405 455 403 449 c 0
 401 442 398 436 394 432 c 2
 166 173 l 2
 125 126 105 80 105 35 c 3
 105 -14 119 -50 146 -75 c 0
 174 -100 205 -112 241 -112 c 3
 277 -112 313 -96 351 -64 c 1
 366 -52 379 -54 390 -69 c 2
 411 -97 l 1
 362 -152 303 -179 234 -179 c 0
 177 -179 130 -161 91 -126 c 0
 50 -89 30 -41 30 19 c 3
 30 91 56 157 107 217 c 2
 293 432 l 1
EndSplineSet
EndChar

StartChar: py
Encoding: 20 60800 32
Width: 604
VWidth: 1024
GlyphClass: 2
Flags: HW
VStem: 28 87<85.2812 506.552> 36 80<297.031 689.719> 403 88<170.083 277.667>
AnchorPoint: "Top" 376 656 basechar 0
LayerCount: 2
Fore
SplineSet
234 115 m 2xa0
 234 115 302.666992188 206.333007812 318 233 c 0
 341.333007812 271.666992188 353.333007812 303.333007812 354 328 c 0
 354 343.333007812 350.666992188 356.666992188 344 368 c 2
 331 386 l 2
 330.333007812 386.666992188 330 387.666992188 330 389 c 0
 330 390 330 390 330 391 c 0
 330 397 333.666992188 405.333007812 341 416 c 0
 353 432.666992188 366.333007812 446 381 456 c 0
 391 464 400 468 408 468 c 0
 416.666992188 468 425.333007812 457.666992188 434 437 c 1
 439 418 l 2
 439.666992188 412 440 406.333007812 440 401 c 0
 440 365 423.666992188 319.666992188 391 265 c 0
 368.333007812 229.666992188 253 77 253 77 c 2
 196.478723404 -4.67681449123e-15 81.2592671868 -16.1427294774 31 -9 c 0
 21.0774844863 -7.58983530766 13 -10 7 -10 c 0
 -3.66666666667 -10 -9 -6.66666666667 -9 0 c 256
 -9 6.66666666667 -3.66666666667 17 7 31 c 0
 15 39 21 56.3333333333 25 83 c 0
 25 83.6666666667 26 110.333333333 28 163 c 0xa0
 28.6666666667 183.666666667 29 214.666666667 29 256 c 0
 29 409.333333333 31.3333333333 511 36 561 c 0
 42.6666666667 632.333333333 53.6666666667 688.666666667 69 730 c 0
 69.6666666667 733.333333333 70.6666666667 736.333333333 72 739 c 0
 92 796.333333333 123.666666667 846.666666667 167 890 c 0
 179.666666667 903.333333333 192 912.333333333 204 917 c 0
 208 920.333333333 211.333333333 922 214 922 c 0
 220 922 223 919.333333333 223 914 c 0
 223 904.666666667 211 885.666666667 187 857 c 1
 186 855 l 1
 184 853 l 1
 142.666666667 793 120 679.666666667 116 513 c 0x60
 114.832226686 464.3427786 116 379 115 293 c 24
 114 237 118.52617784 192.006730512 111 149 c 0
 106.333333333 122.333333333 100.666666667 101.666666667 94 87 c 2
 83 65 l 1
 151.681809581 64.1713052912 196.271186441 62 234 115 c 2xa0
EndSplineSet
EndChar

StartChar: ty
Encoding: 21 60801 33
Width: 661
VWidth: 1024
GlyphClass: 2
Flags: W
HStem: -9 88<348.594 384.934> 372 87<304.533 419>
VStem: 27 87<293 653.744> 466 86<171.783 288.719>
AnchorPoint: "Top" 344 658 basechar 0
AnchorPoint: "Bottom" 277 0 basechar 0
LayerCount: 2
Fore
SplineSet
114 293 m 1
 158.666666667 341 203.333333333 379 248 407 c 0
 302.666666667 441.666666667 351.666666667 459 395 459 c 0
 443 459 482.333333333 438 513 396 c 0
 539 360.666666667 552 320.666666667 552 276 c 0
 552 199.333333333 520.666666667 130 458 68 c 0
 406.666666667 16.6666666667 354 -9 300 -9 c 0
 274 -9 254.666666667 -4 242 6 c 0
 226.666666667 16.6666666667 219 30.6666666667 219 48 c 0
 219 74 229.666666667 94 251 108 c 0
 263.666666667 116 276 120 288 120 c 0
 298 120 308 117 318 111 c 2
 347 90 l 1
 348 89 l 1
 360.666666667 82.3333333333 373.333333333 79 386 79 c 1
 420 87 l 2
 425 90 425 90 430 93 c 0
 435.333333333 97 440.666666667 104.333333333 446 115 c 0
 459.333333333 142.333333333 466 170 466 198 c 0
 466 221.333333333 461.666666667 244.666666667 453 268 c 0
 444.333333333 292.666666667 431 313.666666667 413 331 c 0
 387 358.333333333 357.333333333 372 324 372 c 0
 289.333333333 372 253 359.333333333 215 334 c 0
 167 302.666666667 135.666666667 264.333333333 121 219 c 0
 118.333333333 211.666666667 114.666666667 188.666666667 110 150 c 0
 109.333333333 145.333333333 108.666666667 141 108 137 c 0
 100 81 72 36.3333333333 24 3 c 0
 12 -5 3.33333333333 -9 -2 -9 c 256
 -7.33333333333 -9 -10 -6.33333333333 -10 -1 c 0
 -10 1.66666666667 -9.33333333333 5 -8 9 c 2
 14 41 l 2
 22 57 26.3333333333 90.3333333333 27 141 c 2
 27 141 27 141 27 164 c 2
 30 479 l 1
 34 588.333333333 48.3333333333 677.333333333 73 746 c 0
 93.6666666667 800.666666667 124.333333333 848.333333333 165 889 c 0
 177 901 188.666666667 910 200 916 c 0
 206 919.333333333 211 921 215 921 c 0
 219.666666667 921 222 917.666666667 222 911 c 0
 220.666666667 900.333333333 211.333333333 885.333333333 194 866 c 0
 188.666666667 860.666666667 185 856.333333333 183 853 c 0
 147 799.666666667 125 708.666666667 117 580 c 0
 115 541.333333333 114 445.666666667 114 293 c 1
EndSplineSet
EndChar

StartChar: ky
Encoding: 22 60802 34
Width: 508
VWidth: 1024
GlyphClass: 2
Flags: HW
VStem: 28 87<85.2812 506.552> 36 80<297.031 689.719> 403 88<170.083 277.667>
AnchorPoint: "Bottom" 226 0 basechar 0
AnchorPoint: "Top" 391 657.658 basechar 0
LayerCount: 2
Fore
SplineSet
311 176 m 1xa0
 311 176 313.834391357 35.0521370631 321 4 c 0
 323 -4.6669921875 326.333007812 -9 331 -9 c 256
 335.666992188 -9 343.333007812 -5.6669921875 354 1 c 0
 370 11.6669921875 383.666992188 24.6669921875 395 40 c 0
 404.333007812 53.3330078125 409 63.6669921875 409 71 c 2
 403 98 l 2
 397.666992188 123.333007812 395 155.666992188 395 195 c 0
 395 215 397.333007812 259.333007812 402 328 c 0
 404.666992188 368.666992188 408.666992188 395.666992188 414 409 c 1
 430 429.666992188 438 443.666992188 438 451 c 0
 438 456.333007812 435.333007812 459 430 459 c 0
 423.333007812 459 413 454 399 444 c 0
 367.666992188 419.333007812 345.332853368 390.000060564 332 356 c 0
 324.904296875 337.905273438 316.31640625 309.359375 314 276 c 0
 304.216796875 152.078125 197.952115325 74.8530384564 83 65 c 1
 94 87 l 2
 100.666666667 101.666666667 106.333333333 122.333333333 111 149 c 0
 118.52617784 192.006730512 114 237 115 293 c 24xa0
 116 379 114.832226686 464.3427786 116 513 c 0
 120 679.666666667 142.666666667 793 184 853 c 1
 186 855 l 1
 187 857 l 1
 211 885.666666667 223 904.666666667 223 914 c 0
 223 919.333333333 220 922 214 922 c 0
 211.333333333 922 208 920.333333333 204 917 c 0
 192 912.333333333 179.666666667 903.333333333 167 890 c 0
 123.666666667 846.666666667 92 796.333333333 72 739 c 0
 70.6666666667 736.333333333 69.6666666667 733.333333333 69 730 c 0
 53.6666666667 688.666666667 42.6666666667 632.333333333 36 561 c 0x60
 31.3333333333 511 29 409.333333333 29 256 c 0
 29 214.666666667 28.6666666667 183.666666667 28 163 c 0
 26 110.333333333 25 83.6666666667 25 83 c 0
 21 56.3333333333 15 39 7 31 c 0
 -3.66666666667 17 -9 6.66666666667 -9 0 c 256
 -9 -6.66666666667 -3.66666666667 -10 7 -10 c 0
 13 -10 21.484029467 -12.1450251818 31 -9 c 0
 198.477154249 46.351145284 272.051477909 36.5151997925 311 176 c 1xa0
EndSplineSet
EndChar

StartChar: fy
Encoding: 23 60803 35
Width: 603
VWidth: 1024
GlyphClass: 2
Flags: HW
HStem: 0 69<132 406> 480 20G<188.91 277>
VStem: 188 89<199.37 500>
AnchorPoint: "Bottom" 226 0 basechar 0
AnchorPoint: "Top" 262 657 basechar 0
LayerCount: 2
Fore
SplineSet
244 303 m 0
 244 331 230.492001395 361.166485863 213 367 c 0
 211 367.666992188 208.833007812 368 206.5 368 c 128
 204.166992188 368 202 367.666992188 200 367 c 0
 194 367 189.666992188 365.666992188 187 363 c 2
 160 344 l 2
 150.666992188 340.666992188 145.333007812 339 144 339 c 0
 138.666992188 339 136 341.666992188 136 347 c 0
 136 357.666992188 143.333007812 370.666992188 158 386 c 0
 198 432 239.333007812 455 282 455 c 0
 305.333007812 455 320.333007812 436.333007812 327 399 c 1
 328 398 l 1
 330 384.666992188 331 369.333007812 331 352 c 0
 331 289.333007812 331.873973263 242.616948127 330 212 c 0
 327.551717754 172 307.686221078 114.991505223 231 76 c 1
 231 76 335 78 351 78 c 0
 355 78 355 78 359 78 c 0
 395.666666667 78 426.666666667 86.3333333333 452 103 c 1
 506 148 l 2
 517.333333333 154.666666667 525.666666667 158 531 158 c 2
 531 158 531 158 532 158 c 0
 536 158 538 154.666666667 538 148 c 0
 536 139.333333333 531.333333333 130.666666667 524 122 c 0
 508 99.3333333333 480 73.3333333333 440 44 c 0
 390.666666667 8.66666666667 341.333333333 -9 292 -9 c 1xb0
 127 1 l 1
 105 1 l 2
 71.6666666667 -0.333333333333 42.6666666667 -2.66666666667 18 -6 c 0
 7.33333333333 -7.33333333333 0.666666666667 -8 -2 -8 c 0
 -6.66666666667 -8 -9 -6 -9 -2 c 0
 -9 -1 -9 -1 -9 -1 c 2
 -9 7.66666666667 -3 19 9 33 c 0
 25.6666666667 55 43 69.3333333333 61 76 c 0
 66.3333333333 78 76.7463919275 78.9466296826 92 81 c 0
 163.63991216 90.6438343292 176.774414062 75.12890625 216 112 c 0
 249.333007812 143.333007812 244 227.99333363 244 303 c 0
EndSplineSet
EndChar

StartChar: ly
Encoding: 24 60804 36
Width: 546
VWidth: 1024
GlyphClass: 2
Flags: W
HStem: -9 85<138.333 281.179> 374 86<146.729 258.667>
VStem: -26 85<177.788 287.477>
AnchorPoint: "Top" 244 657 basechar 0
AnchorPoint: "Bottom" 237 0 basechar 0
LayerCount: 2
Fore
SplineSet
447 151 m 0
 447 137 436.333333333 120.333333333 415 101 c 0
 343.666666667 27.6666666667 257 -9 155 -9 c 0
 121.666666667 -9 91 0.666666666667 63 20 c 0
 3.66666666667 58.6666666667 -26 116 -26 192 c 0
 -26 250 -3.33333333333 305 42 357 c 0
 103.333333333 425.666666667 169.666666667 460 241 460 c 0
 276.333333333 460 308.333333333 450.666666667 337 432 c 0
 357.666666667 417.333333333 368 400.666666667 368 382 c 0
 368 375.333333333 366.666666667 368.333333333 364 361 c 0
 356 337.666666667 340.333333333 322.333333333 317 315 c 0
 311 313.666666667 305.333333333 313 300 313 c 0
 291.333333333 313 283 314.666666667 275 318 c 0
 268.333333333 320.666666667 257 329.333333333 241 344 c 0
 221 364 195 374 163 374 c 0
 132.333333333 374 107.333333333 366.666666667 88 352 c 0
 85.3333333333 350 82.3333333333 345.666666667 79 339 c 0
 65.6666666667 314.333333333 59 288.666666667 59 262 c 0
 59 236 65.3333333333 209.333333333 78 182 c 0
 100.666666667 134.666666667 135 102.666666667 181 86 c 0
 199 79.3333333333 220 76 244 76 c 0
 292.666666667 76 339 90.6666666667 383 120 c 1
 416 149 l 2
 424.666666667 155.666666667 433 159 441 159 c 0
 445 159 447 156.333333333 447 151 c 0
EndSplineSet
EndChar

StartChar: sy
Encoding: 25 60805 37
Width: 653
VWidth: 1024
GlyphClass: 2
Flags: W
HStem: -9 87<122.451 263.91> 330 129<207.641 302.683> 371 88<159.446 196.406>
VStem: -10 86<162.519 278.334> 432 84<162.664 467.709>
AnchorPoint: "Top" 234 658 basechar 0
AnchorPoint: "Bottom" 276 0 basechar 0
LayerCount: 2
Fore
SplineSet
629 921 m 0xd8
 635 921 638 918.333333333 638 913 c 0
 638 903.666666667 625.666666667 885.333333333 601 858 c 1
 575.666666667 824 557.666666667 773.333333333 547 706 c 0
 539 660.666666667 532 583 526 473 c 0
 519.333333333 359.666666667 516 275.333333333 516 220 c 0
 516 182.666666667 520.666666667 138.333333333 530 87 c 0
 531.333333333 81.6666666667 532 76.6666666667 532 72 c 0
 532 61.3333333333 528.333333333 51.6666666667 521 43 c 0
 503 15 482 -2.33333333333 458 -9 c 0
 451.333333333 -9 447 -4.33333333333 445 5 c 0
 440.333333333 33.6666666667 436 62.3333333333 432 91 c 2
 430 127 l 2
 429.333333333 125.666666667 421.333333333 117.666666667 406 103 c 0
 387.333333333 86.3333333333 368 71 348 57 c 2
 308 33 l 1
 256 5 204 -9 152 -9 c 0
 92.6666666667 -9 47.6666666667 19 17 75 c 0
 15 77.6666666667 13.3333333333 80.6666666667 12 84 c 0
 -2.66666666667 112 -10 143.666666667 -10 179 c 0
 -10 241 14.3333333333 300.666666667 63 358 c 0
 88.3333333333 388 117.666666667 413 151 433 c 0
 181 450.333333333 211.333333333 459 242 459 c 0
 248.666666667 459 255.333333333 458.666666667 262 458 c 2
 263 458 l 1
 290.333333333 454.666666667 308.666666667 443 318 423 c 0
 322 414.333333333 324 406 324 398 c 0
 324 382.666666667 317.333333333 367.666666667 304 353 c 0
 290 337.666666667 274.333333333 330 257 330 c 0xd8
 243.666666667 330 232 333.333333333 222 340 c 2
 198 359 l 1
 197 360 l 1
 184.333333333 367.333333333 171.333333333 371 158 371 c 0xb8
 130 371 110.666666667 361 100 341 c 0
 84 313 76 283.333333333 76 252 c 0
 76 232 79.3333333333 211.333333333 86 190 c 0
 97.3333333333 155.333333333 116.333333333 127.333333333 143 106 c 0
 167 87.3333333333 196 78 230 78 c 0
 282 78 331 94.6666666667 377 128 c 0
 389 137.333333333 397.666666667 145.333333333 403 152 c 0
 419.666666667 172.666666667 429.333333333 206.666666667 432 254 c 1
 432 260 l 2
 432 260.666666667 433 284 435 330 c 0
 443 472 447.333333333 545.666666667 448 551 c 0
 456 637.666666667 471.333333333 707.666666667 494 761 c 0
 515.333333333 811 545.666666667 855.333333333 585 894 c 0
 595 904 606.333333333 912 619 918 c 0
 623 920 626.333333333 921 629 921 c 0xd8
EndSplineSet
EndChar

StartChar: cy
Encoding: 26 60806 38
Width: 723
VWidth: 1024
GlyphClass: 2
Flags: HW
HStem: 0 21G<70 158 398 487> 438 70<216.373 363.31> 480 20G<70 129.5> 730 20G<398 487>
VStem: 70 88<0 389.796> 70 76<428 499.982> 398 89<0 400.717 452 750>
AnchorPoint: "Top" 126 657 basechar 0
AnchorPoint: "Bottom" 283 0 basechar 0
LayerCount: 2
Fore
SplineSet
430 205 m 1x9a
 412.396434483 284 380.971667195 365.863771497 309 371 c 1
 244 370.221555672 196.599903415 281.666344718 176 213 c 0
 174 206.333333333 170.666666667 183 166 143 c 0
 157.333333333 85 130.333333333 39 85 5 c 0
 71 -3.66666666667 60.6666666667 -8 54 -8 c 0
 49.3333333333 -8 47 -6 47 -2 c 0
 47 5.33333333333 53.6666666667 18 67 36 c 1
 68 37 l 2
 69.3333333333 39 70 40.3333333333 70 41 c 0
 74 47 77.3333333333 59 80 77 c 0
 82 91.6666666667 83.3333333333 133 84 201 c 2
 85 274 l 2
 85 336.666666667 72 368 46 368 c 0
 42.6666666667 368 36.6666666667 366.666666667 28 364 c 1
 1 345 l 1
 0 344 l 1
 -6.66666666667 341.333333333 -12 340 -16 340 c 0
 -20.6666666667 340 -23 342.333333333 -23 347 c 2
 -23 352 l 2
 -21.6666666667 359.333333333 -13.6666666667 371.666666667 1 389 c 0
 41 433 80 455 118 455 c 0
 130.666666667 455 141 451 149 443 c 0
 157.666666667 435 164 420.666666667 168 400 c 0
 170 386 171 360.333333333 171 323 c 0
 171 309 171 309 171 293 c 1
 217 348.530030174 246.001337903 455.523091523 331 456 c 0
 399.985696316 456.387063308 436.207851244 373.882579439 443 306 c 1
 446.206054688 361.374023438 447.588451689 547.707613515 448 551 c 0
 458.795377295 637.36301836 471.333333333 707.666666667 494 761 c 0
 515.333333333 811 545.666666667 855.333333333 585 894 c 0
 595 904 606.333333333 912 619 918 c 0
 623 920 626.333333333 921 629 921 c 0
 635 921 638 918.333333333 638 913 c 0
 638 903.666666667 625.666666667 885.333333333 601 858 c 1
 575.666666667 824 557.666666667 773.333333333 547 706 c 0
 539 660.666666667 532 583 526 473 c 0
 519.333333333 359.666666667 516 275.333333333 516 220 c 0
 516 182.666666667 520.666666667 138.333333333 530 87 c 0
 531.333333333 81.6666666667 532 76.6666666667 532 72 c 0
 532 61.3333333333 528.333333333 51.6666666667 521 43 c 0
 503 15 482 -2.33333333333 458 -9 c 0
 451.333333333 -9 447 -4.33333333333 445 5 c 0
 440.333333333 33.6666666667 433.612307692 61.9784615385 432 91 c 2
 430 127 l 1
 430 205 l 1x9a
EndSplineSet
EndChar

StartChar: my
Encoding: 27 60807 39
Width: 603
VWidth: 1024
GlyphClass: 2
Flags: W
HStem: -9 87<29.6426 276.781 316.347 386.812> 1 87<42.6738 242.5> 382 86<176.448 280.557>
VStem: 351 88<217.354 312.407>
AnchorPoint: "Top" 211 657 basechar 0
AnchorPoint: "Bottom" 226 0 basechar 0
LayerCount: 2
Fore
SplineSet
439 306 m 4x70
 439 238.666666667 398 163.333333333 316 80 c 5
 323.333333333 78.6666666667 335 78 351 78 c 4
 355 78 355 78 359 78 c 4
 395.666666667 78 426.666666667 86.3333333333 452 103 c 5
 506 148 l 6
 517.333333333 154.666666667 525.666666667 158 531 158 c 6
 531 158 531 158 532 158 c 4
 536 158 538 154.666666667 538 148 c 4
 536 139.333333333 531.333333333 130.666666667 524 122 c 4
 508 99.3333333333 480 73.3333333333 440 44 c 4
 390.666666667 8.66666666667 341.333333333 -9 292 -9 c 5xb0
 127 1 l 5
 105 1 l 6
 71.6666666667 -0.333333333333 42.6666666667 -2.66666666667 18 -6 c 4
 7.33333333333 -7.33333333333 0.666666666667 -8 -2 -8 c 4
 -6.66666666667 -8 -9 -6 -9 -2 c 4
 -9 -1 -9 -1 -9 -1 c 6
 -9 7.66666666667 -3 19 9 33 c 4
 25.6666666667 55 43 69.3333333333 61 76 c 4
 66.3333333333 78 76.6666666667 79.6666666667 92 81 c 4
 126.666666667 85.6666666667 157.333333333 88 184 88 c 6
 239 88 l 6
 259.666666667 90 280.333333333 99.3333333333 301 116 c 4
 334.333333333 147.333333333 351 188.333333333 351 239 c 4
 351 261.666666667 346 282.333333333 336 301 c 4
 323.333333333 326.333333333 304.666666667 346.333333333 280 361 c 4
 256 375 230.666666667 382 204 382 c 4
 156.666666667 382 111.333333333 363.666666667 68 327 c 4
 46.6666666667 307.666666667 34.6666666667 297 32 295 c 4
 21.3333333333 288.333333333 13.3333333333 285 8 285 c 260
 2.66666666667 285 0 288 0 294 c 6
 2 303 l 5
 10 320.333333333 29.3333333333 342.333333333 60 369 c 4
 62 370.333333333 63.6666666667 371.666666667 65 373 c 4
 137 436.333333333 206.333333333 468 273 468 c 4
 323 468 362.666666667 452.333333333 392 421 c 4
 423.333333333 389.666666667 439 351.333333333 439 306 c 4x70
EndSplineSet
EndChar

StartChar: xy
Encoding: 28 60808 40
Width: 548
VWidth: 1024
GlyphClass: 2
Flags: W
HStem: -9 87<164.691 271.075> 373 86<154.239 263.732>
VStem: -20 86<177.028 283.284> 362 86<166.807 275.172>
AnchorPoint: "Top" 228 656 basechar 0
AnchorPoint: "Bottom" 227 0 basechar 0
LayerCount: 2
Fore
SplineSet
51 357 m 0
 111.666666667 425 177.666666667 459 249 459 c 0
 325 459 382 427 420 363 c 0
 438.666666667 331 448 297.333333333 448 262 c 0
 448 200.666666667 422.333333333 142.333333333 371 87 c 0
 311.666666667 23 246 -9 174 -9 c 0
 154 -9 134.333333333 -5.66666666667 115 1 c 0
 61.6666666667 18.3333333333 22.6666666667 53.3333333333 -2 106 c 0
 -14 133.333333333 -20 161.333333333 -20 190 c 0
 -20 247.333333333 3.66666666667 303 51 357 c 0
185 373 m 0
 159 373 135 368.333333333 113 359 c 0
 102.333333333 354.333333333 95.6666666667 350.666666667 93 348 c 0
 85.6666666667 341.333333333 79 328.333333333 73 309 c 0
 68.3333333333 292.333333333 66 275.666666667 66 259 c 0
 66 233.666666667 72 208.666666667 84 184 c 0
 106 136.666666667 141.666666667 104.666666667 191 88 c 0
 210.333333333 81.3333333333 230 78 250 78 c 1
 317 91 l 1
 326.333333333 95.6666666667 332.666666667 99.6666666667 336 103 c 0
 344 111 350 123.333333333 354 140 c 0
 359.333333333 155.333333333 362 171.666666667 362 189 c 0
 362 207 359 225.666666667 353 245 c 0
 339 290.333333333 310.333333333 325.333333333 267 350 c 0
 239.666666667 365.333333333 212.333333333 373 185 373 c 0
EndSplineSet
EndChar

StartChar: denpabu
Encoding: 29 60809 41
Width: 270
VWidth: 1024
GlyphClass: 2
Flags: W
HStem: 155 140<62 88.5312>
VStem: -7 140<199.75 251.527>
AnchorPoint: "Top" 63 657 basechar 0
AnchorPoint: "Bottom" 65 0 basechar 0
LayerCount: 2
Fore
SplineSet
44 281 m 1
 62 295 l 2
 65.3333333333 295 69.6666666667 292.333333333 75 287 c 2
 100 263 l 2
 111.333333333 252.333333333 122.333333333 240.333333333 133 227 c 0
 133 226 133 226 133 226 c 2
 133 220.666666667 128.666666667 214.666666667 120 208 c 2
 82 170 l 2
 72 160 66 155 64 155 c 0
 60.6666666667 155 56.3333333333 157.666666667 51 163 c 2
 3 211 l 2
 -3.66666666667 217.666666667 -7 222.333333333 -7 225 c 0
 -7 228.333333333 -2.66666666667 234.333333333 6 243 c 2
 44 281 l 1
EndSplineSet
Substitution2: "Single Substitution lookup 73 subtable" denpabu.cas
EndChar

StartChar: yhy
Encoding: 30 60810 42
Width: 301
VWidth: 1024
GlyphClass: 2
Flags: W
VStem: 83 88<86.5723 363.088>
AnchorPoint: "Top" 116 656 basechar 0
AnchorPoint: "Bottom" 119 0 basechar 0
LayerCount: 2
Fore
SplineSet
-16 339 m 4
 -21.3333333333 339 -24 341.666666667 -24 347 c 4
 -24 357.666666667 -16.6666666667 370.666666667 -2 386 c 4
 38 432 79.3333333333 455 122 455 c 4
 145.333333333 455 160.333333333 436.333333333 167 399 c 5
 168 398 l 5
 170 384.666666667 171 369.333333333 171 352 c 4
 171 289.333333333 170.666666667 242.666666667 170 212 c 4
 168.666666667 163.333333333 165 129.333333333 159 110 c 4
 153 91.3333333333 143.666666667 72.6666666667 131 54 c 4
 113.666666667 30 97 13 81 3 c 4
 69.6666666667 -5 61 -9 55 -9 c 4
 50.3333333333 -9 48 -7 48 -3 c 4
 48 5 55.3333333333 19.3333333333 70 40 c 4
 78.6666666667 54.6666666667 83 88.6666666667 83 142 c 6
 84 303 l 5
 81.3333333333 341.666666667 71 363 53 367 c 4
 51 367.666666667 48.8333333333 368 46.5 368 c 4
 44.1666666667 368 42 367.666666667 40 367 c 4
 34 367 29.6666666667 365.666666667 27 363 c 6
 0 344 l 6
 -9.33333333333 340.666666667 -14.6666666667 339 -16 339 c 4
EndSplineSet
Substitution2: "Single Substitution lookup 75 subtable" yhy.cas
Substitution2: "Single Substitution lookup 74 subtable" yhy.cas
EndChar

StartChar: cnimahobu
Encoding: 31 60811 43
Width: 316
VWidth: 1024
GlyphClass: 2
Flags: HW
HStem: 0 21G<306 394> 306 87<27.1897 209.657> 480 20G<304 394>
VStem: 306 88<0 415>
AnchorPoint: "Bottom" 420 0 basechar 0
AnchorPoint: "Top" 417 656 basechar 0
LayerCount: 2
Fore
SplineSet
437 435 m 0
 451 447 460.333007812 453 465 453 c 0
 471.666992188 453 475 449 475 441 c 0
 475 438.333007812 473.666992188 434.333007812 471 429 c 0
 469.226336021 401.508208329 472 381.673578572 472 352 c 0
 472 289.333007812 471.666992188 242.666992188 471 212 c 0
 469.666992188 163.333007812 466 129.333007812 460 110 c 0
 454 91.3330078125 444.666992188 72.6669921875 432 54 c 0
 414.666992188 30 398 13 382 3 c 0
 370.666992188 -5 362 -9 356 -9 c 0
 351.333007812 -9 349 -7 349 -3 c 0
 349 5 356.333007812 19.3330078125 371 40 c 0
 379.666992188 54.6669921875 384 88.6669921875 384 142 c 2
 385 303 l 2
 384.34392407 312.512019934 383.858874595 320.500994331 383.240009543 327.227483243 c 1
 343.423859475 282.819110488 308.343661366 247.409949406 278 221 c 0
 224 175 172.666992188 152 124 152 c 0
 88.6669921875 152 62.3330078125 165.333007812 45 192 c 0
 36.3330078125 205.333007812 32 220 32 236 c 0
 32 279.333007812 58.3330078125 317.333007812 111 350 c 0
 131 362.666992188 148.333007812 369 163 369 c 0
 169 369 172 366.666992188 172 362 c 2
 172 361 l 2
 172 356.333007812 163.666992188 347.666992188 147 335 c 0
 129 321.666992188 120 303.333007812 120 280 c 2
 124 255 l 2
 130.666992188 235.666992188 145 225.666992188 167 225 c 0
 189 225 219 240 257 270 c 0
 277.666992188 286 317.333007812 322.333007812 376 379 c 0
 399.333007812 402.333007812 419.666992188 421 437 435 c 0
EndSplineSet
EndChar

StartChar: patonga
Encoding: 32 60812 44
Width: 0
VWidth: 988
GlyphClass: 4
Flags: W
HStem: -204 141
VStem: -359 198
AnchorPoint: "Bottom" -260 0 mark 0
LayerCount: 2
Fore
SplineSet
-161 -63 m 5
 -276 -190 l 6
 -281 -195 -286 -199 -290 -201 c 4
 -294 -203 -300 -204 -307 -204 c 6
 -359 -204 l 5
 -286 -84 l 6
 -281 -76 -276 -71 -271 -68 c 4
 -266 -65 -258 -63 -247 -63 c 6
 -161 -63 l 5
EndSplineSet
EndChar

StartChar: retonga
Encoding: 33 60813 45
Width: 0
VWidth: 988
GlyphClass: 4
Flags: W
HStem: -204 141
VStem: -348 196
AnchorPoint: "Bottom" -250 0 mark 0
LayerCount: 2
Fore
SplineSet
-265 -63 m 6
 -254 -63 -245 -65 -240 -68 c 4
 -235 -71 -231 -76 -226 -84 c 6
 -152 -204 l 5
 -202 -204 l 6
 -209 -204 -215 -203 -219 -201 c 4
 -223 -199 -227 -195 -232 -190 c 6
 -348 -63 l 5
 -265 -63 l 6
EndSplineSet
EndChar

StartChar: citonga
Encoding: 34 60814 46
Width: 0
VWidth: 988
GlyphClass: 4
Flags: W
HStem: -199 130
VStem: -420 302
AnchorPoint: "Bottom" -269 0 mark 0
LayerCount: 2
Fore
SplineSet
-118 -199 m 5
 -177 -199 l 6
 -181 -199 -183 -199 -187 -197 c 4
 -191 -195 -194 -194 -196 -192 c 6
 -260 -125 l 6
 -262 -123 -263 -122 -264 -120 c 4
 -265 -118 -266 -117 -268 -115 c 5
 -270 -117 -271 -118 -272 -120 c 4
 -273 -122 -274 -123 -276 -125 c 6
 -340 -192 l 6
 -342 -194 -344 -195 -348 -197 c 4
 -352 -199 -355 -199 -359 -199 c 6
 -420 -199 l 5
 -310 -69 l 5
 -228 -69 l 5
 -118 -199 l 5
EndSplineSet
EndChar

StartChar: votonga
Encoding: 35 60815 47
Width: 0
VWidth: 988
GlyphClass: 4
Flags: W
HStem: -194 130
VStem: -421 302
AnchorPoint: "Bottom" -270 0 mark 0
LayerCount: 2
Fore
SplineSet
-119 -64 m 1
 -229 -194 l 1
 -311 -194 l 1
 -421 -64 l 1
 -360 -64 l 2
 -356 -64 -353 -64 -349 -66 c 0
 -345 -68 -343 -69 -341 -71 c 2
 -277 -138 l 2
 -275 -140 -274 -141 -273 -143 c 0
 -272 -145 -271 -146 -269 -148 c 1
 -267 -146 -266 -145 -265 -143 c 0
 -264 -141 -263 -140 -261 -138 c 2
 -197 -71 l 2
 -195 -69 -192 -68 -188 -66 c 0
 -184 -64 -182 -64 -178 -64 c 2
 -119 -64 l 1
EndSplineSet
EndChar

StartChar: by
Encoding: 36 60816 48
Width: 540
VWidth: 1024
GlyphClass: 2
Flags: HW
HStem: -9 86<-1.33333 74.3333>
VStem: 324 87<64.7922 366.6>
AnchorPoint: "Top" 378 657 basechar 0
AnchorPoint: "Bottom" 213 0 basechar 0
LayerCount: 2
Fore
SplineSet
211 233 m 2
 93 93 l 2
 84.3340890109 82.7184106908 77.6666666667 77 71 77 c 0
 65 77 59.3333333333 79.6666666667 54 85 c 2
 34 111 l 2
 28 118.333333333 23.3333333333 122 20 122 c 0
 15.3333333333 122 9 120 1 116 c 0
 -19 103.333333333 -35 88 -47 70 c 0
 -55 57.3333333333 -59 48.3333333333 -59 43 c 0
 -58.3333333333 39.6666666667 -54.6666666667 34.6666666667 -48 28 c 0
 -47.3333333333 26.6666666667 -46.3333333333 25 -45 23 c 2
 -44 22 l 1
 -32.6666666667 4.66666666667 -22 -5.33333333333 -12 -8 c 0
 -8 -8.66666666667 -3.66666666667 -9 1 -9 c 0
 39 -9 87.8559529642 28.1205291524 148 100 c 2
 230 198 l 2
 292.855952964 273.120529152 293 289.926757812 325 310 c 1
 323 273.259765625 325.175751658 320.999023617 325 292 c 2
 324 127 l 1
 324 -90.3330078125 304.616210938 -253.556640625 270 -364 c 0
 256 -408.666992188 242 -438 228 -452 c 2
 227 -453 l 2
 203 -478.333007812 191 -496 191 -506 c 0
 191 -512 194 -515 200 -515 c 0
 212 -515 229 -504 251 -482 c 0
 326.333007812 -406.666992188 374.333007812 -284.333007812 395 -115 c 0
 405.666992188 -28.3330078125 411 115.666992188 411 317 c 0
 411 364.333007812 415 395.333007812 423 410 c 0
 423.666992188 411.333007812 427.333007812 415 434 421 c 0
 456.666992188 443.666992188 468 460 468 470 c 0
 468 477.333007812 464.666992188 481 458 481 c 0
 452 481 444 477.333007812 434 470 c 0
 426 463.333007812 420.666992188 459.666992188 418 459 c 0
 314.695583392 407.30995125 324.094265378 368.125615777 211 233 c 2
EndSplineSet
EndChar

StartChar: dy
Encoding: 37 60817 49
Width: 639
VWidth: 1024
GlyphClass: 2
Flags: W
HStem: -8 86<142.667 262.221> 371 88<158.394 193.406>
VStem: -11 86<162.99 279.598> 430 87<162.237 368.504>
AnchorPoint: "Top" 270 657 basechar 0
AnchorPoint: "Bottom" 221 0 basechar 0
LayerCount: 2
Fore
SplineSet
306 -515 m 0
 300.666666667 -515 298 -511.333333333 298 -504 c 0
 299.333333333 -494 309.333333333 -479 328 -459 c 2
 329 -458 l 2
 346.333333333 -438 361.333333333 -409.333333333 374 -372 c 0
 411.333333333 -254.666666667 430 -88.3333333333 430 127 c 1
 340 37 246.666666667 -8 150 -8 c 0
 135.333333333 -8 123 -6.66666666667 113 -4 c 0
 63 10 27 44 5 98 c 0
 -5.66666666667 124 -11 150.666666667 -11 178 c 0
 -11 258 25.3333333333 330.333333333 98 395 c 0
 146 437.666666667 193.333333333 459 240 459 c 0
 266 459 285.666666667 454.333333333 299 445 c 0
 314.333333333 435 322 421.333333333 322 404 c 0
 322 376.666666667 311.666666667 356.333333333 291 343 c 0
 278.333333333 334.333333333 266 330 254 330 c 0
 243.333333333 330 233.333333333 333 224 339 c 2
 195 360 l 1
 194 361 l 1
 181.333333333 367.666666667 168.666666667 371 156 371 c 1
 122 363 l 2
 112 359.666666667 103 350 95 334 c 0
 81.6666666667 306 75 278.333333333 75 251 c 0
 75 205.666666667 89.3333333333 165.666666667 118 131 c 0
 146 95.6666666667 180.666666667 78 222 78 c 0
 226.666666667 78 231.666666667 78.3333333333 237 79 c 0
 299.666666667 83.6666666667 349.666666667 103 387 137 c 0
 407 155 419.666666667 175.333333333 425 198 c 0
 427.666666667 207.333333333 429.333333333 229.666666667 430 265 c 2
 430 272 l 1
 432.666666667 350 461.666666667 408 517 446 c 0
 529 454.666666667 538.333333333 459 545 459 c 0
 550.333333333 459 553 456.666666667 553 452 c 0
 553 446.666666667 546 434.333333333 532 415 c 1
 531 414 l 1
 521.666666667 400 517 367.333333333 517 316 c 0
 517 310 517 310 517 304 c 2
 517 287 l 2
 517 85 510 -62.6666666667 496 -156 c 0
 472.666666667 -304.666666667 426.333333333 -413 357 -481 c 0
 334.333333333 -503.666666667 317.333333333 -515 306 -515 c 0
EndSplineSet
EndChar

StartChar: gy
Encoding: 38 60818 50
Width: 540
VWidth: 1024
GlyphClass: 2
Flags: HW
HStem: -250 21G<398 487> 0 21G<70 124.5> 480 20G<70 158 429 487>
VStem: 70 88<127.749 500> 398 89<-250 371.295>
AnchorPoint: "Top" 282 657 basechar 0
AnchorPoint: "Bottom" 219 0 basechar 0
LayerCount: 2
Fore
SplineSet
418 459 m 1
 418 459 426 463.333007812 434 470 c 0
 444 477.333007812 452 481 458 481 c 0
 464.666992188 481 468 477.333007812 468 470 c 0
 468 460 456.666992188 443.666992188 434 421 c 0
 427.333007812 415 423.666992188 411.333007812 423 410 c 0
 415 395.333007812 411 364.333007812 411 317 c 0
 411 115.666992188 405.666992188 -28.3330078125 395 -115 c 0
 374.333007812 -284.333007812 326.333007812 -406.666992188 251 -482 c 0
 229 -504 212 -515 200 -515 c 0
 194 -515 191 -512 191 -506 c 0
 191 -496 203 -478.333007812 227 -453 c 2
 228 -452 l 2
 242 -438 256 -408.666992188 270 -364 c 0
 304.616210938 -253.556640625 324 -90.3330078125 324 127 c 1
 325 292 l 6
 325.175751658 320.999023617 323 327.703930133 324 365 c 5
 292 344.926757812 189.86 310.02 176 213 c 2
 171.069200468 207.935935616 171.951475666 182.829106382 166 143 c 0
 157.333333333 85 130.333333333 39 85 5 c 0
 71 -3.66666666667 60.6666666667 -8 54 -8 c 0
 49.3333333333 -8 47 -6 47 -2 c 0
 47 5.33333333333 53.6666666667 18 67 36 c 1
 68 37 l 2
 69.3333333333 39 70 40.3333333333 70 41 c 0
 74 47 77.3333333333 59 80 77 c 0
 82 91.6666666667 83.3333333333 133 84 201 c 2
 85 274 l 2
 85 336.666666667 72 368 46 368 c 0
 42.6666666667 368 36.6666666667 366.666666667 28 364 c 1
 1 345 l 1
 0 344 l 1
 -6.66666666667 341.333333333 -12 340 -16 340 c 0
 -20.6666666667 340 -23 342.333333333 -23 347 c 2
 -23 352 l 2
 -21.6666666667 359.333333333 -13.6666666667 371.666666667 1 389 c 0
 41 433 80 455 118 455 c 0
 130.666666667 455 141 451 149 443 c 0
 157.666666667 435 164 420.666666667 168 400 c 0
 170 386 171 360.333333333 171 323 c 0
 171 309 171 309 171 293 c 1
 266 394 418 459 418 459 c 1
EndSplineSet
EndChar

StartChar: vy
Encoding: 39 60819 51
Width: 603
VWidth: 1024
GlyphClass: 2
Flags: HW
HStem: 0 21G<158 246> 431 69<29 302>
VStem: 158 88<0 302.685>
AnchorPoint: "Bottom" 291 -1.3418 basechar 0
AnchorPoint: "Top" 263 658.316 basechar 0
LayerCount: 2
Fore
SplineSet
345 371 m 0
 371.5376629 370.499289379 402.333007812 373.333007812 437 378 c 0
 452.333007812 379.333007812 462.666992188 381 468 383 c 0
 486 389.666992188 503.333007812 404 520 426 c 0
 532 440 538 451.333007812 538 460 c 2
 538 460 538 460 538 461 c 0
 538 465 535.666992188 467 531 467 c 0
 528.333007812 467 521.666992188 466.333007812 511 465 c 0
 486.333007812 461.666992188 457.333007812 459.333007812 424 458 c 2
 402 458 l 1
 237 468 l 1xb0
 187.666992188 468 138.333007812 450.333007812 89 415 c 0
 49 385.666992188 21 359.666992188 5 337 c 0
 -2.3330078125 328.333007812 -7 319.666992188 -9 311 c 0
 -9 304.333007812 -7 301 -3 301 c 0
 -2 301 -2 301 -2 301 c 2
 3.3330078125 301 11.6669921875 304.333007812 23 311 c 2
 77 356 l 1
 102.333007812 372.666992188 133.333007812 381 170 381 c 0
 174 381 174.053624289 380.347222282 178 381 c 0
 186.193114552 382.355239087 271 379 271 379 c 1
 271 379 214.438476562 343 220 296 c 1
 219 142 l 2
 218.793945312 110.331054688 214.666992188 54.6669921875 206 40 c 0
 191.333007812 19.3330078125 184 5 184 -3 c 0
 184 -7 186.333007812 -9 191 -9 c 0
 197 -9 205.666992188 -5 217 3 c 0
 233 13 249.666992188 30 267 54 c 0
 279.666992188 72.6669921875 289 91.3330078125 295 110 c 0
 301 129.333007812 304.666992188 163.333007812 306 212 c 0
 308.844726562 282.311523438 279 372.245283019 345 371 c 0
EndSplineSet
EndChar

StartChar: ry
Encoding: 40 60820 52
Width: 567
VWidth: 1024
GlyphClass: 2
Flags: HW
AnchorPoint: "Top" 246 656 basechar 0
AnchorPoint: "Bottom" 233 0 basechar 0
LayerCount: 2
Fore
SplineSet
-6 299 m 0
 -6 313.666666667 12 337 48 369 c 0
 120 429 196 459 276 459 c 0
 350 459 404.666666667 427.666666667 440 365 c 0
 458.666666667 331.666666667 468 297 468 261 c 0
 468 196.333333333 442.333333333 137 391 83 c 0
 333 21.6666666667 270.333333333 -9 203 -9 c 0
 165.666666667 -9 133.666666667 0 107 18 c 0
 86.3333333333 32.6666666667 76 50 76 70 c 0
 76 73 76 73 76 77 c 0
 76 97.6666666667 87.3333333333 114.333333333 110 127 c 0
 122 134.333333333 133.666666667 138 145 138 c 128
 156.333333333 138 167.333333333 134.333333333 178 127 c 2
 216 95 l 2
 218.666666667 92.3333333333 221.666666667 90.3333333333 225 89 c 0
 239.666666667 81 256.666666667 77 276 77 c 0
 287.333333333 77 299.333333333 78.3333333333 312 81 c 0
 337.333333333 85 354 94 362 108 c 0
 376.666666667 134 384 161 384 189 c 0
 384 213 378.333333333 238 367 264 c 0
 347.666666667 307.333333333 318 338.333333333 278 357 c 0
 254 368.333333333 228.166666667 374 200.5 374 c 128
 172.833333333 374 143.666666667 368.333333333 113 357 c 0
 94.3333333333 350.333333333 78.3333333333 342.333333333 65 333 c 2
 22 298 l 2
 14.6666666667 294 8.33333333333 292 3 292 c 0
 -3 292 -6 294.333333333 -6 299 c 0
EndSplineSet
EndChar

StartChar: zy
Encoding: 41 60821 53
Width: 717
VWidth: 1024
GlyphClass: 2
Flags: W
HStem: -9 89<346.667 449.667> 368 87<51.3945 72.6851 349.491 453.448>
VStem: 83 86<14.8242 253.207 294 344> 523 86<172.957 285.972>
AnchorPoint: "Top" 282 658 basechar 0
AnchorPoint: "Bottom" 341 0 basechar 0
LayerCount: 2
Back
SplineSet
449 -480 m 0
 449 -472.666992188 440.333007812 -462 423 -448 c 2
 382 -421 l 1
 380 -420 l 1
 346.666992188 -397.333007812 317 -374 291 -350 c 0
 186.333007812 -249.333007812 121.666992188 -122.666992188 97 30 c 0
 91.6669921875 64.6669921875 89 97.6669921875 89 129 c 0
 89 209 108.666992188 273.666992188 148 323 c 0
 166 345.666992188 186.666992188 362.666992188 210 374 c 0
 233.333007812 386 257.666992188 392 283 392 c 0
 302.333007812 392 322 388.666992188 342 382 c 0
 370.666992188 373.333007812 390 363 400 351 c 0
 412 335.666992188 420.666992188 313 426 283 c 0
 426.666992188 275.666992188 427 268.666992188 427 262 c 0
 427 242.666992188 423.333007812 226.666992188 416 214 c 2
 383 174 l 2
 377 165.333007812 374 156 374 146 c 0
 374 118 388 97.3330078125 416 84 c 0
 424.666992188 80 433.333007812 78 442 78 c 2
 458 80 l 1
 494.666992188 89.3330078125 513 125.333007812 513 188 c 0
 513 258 479.333007812 325.333007812 412 390 c 0
 374.666992188 425.333007812 334.666992188 450 292 464 c 0
 265.333007812 473.333007812 239.333007812 478 214 478 c 0
 132 478 72 437 34 355 c 0
 12.6669921875 311 2 261 2 205 c 0
 2 173.666992188 5 137.666992188 11 97 c 0
 33.6669921875 -50.3330078125 97.3330078125 -185 202 -307 c 0
 254 -368.333007812 312 -420 376 -462 c 0
 405.333007812 -479.333007812 426.333007812 -488 439 -488 c 0
 445.666992188 -488 449 -485.333007812 449 -480 c 0
EndSplineSet
Fore
SplineSet
-43 -515 m 0
 -49.6666666667 -515 -53 -512.666666667 -53 -508 c 0
 -53 -500.666666667 -46 -488 -32 -470 c 0
 -18.6666666667 -455.333333333 -10.3333333333 -445 -7 -439 c 0
 11 -411 27.3333333333 -366.666666667 42 -306 c 0
 69.3333333333 -194.666666667 83 -4.66666666667 83 264 c 0
 83 303.333333333 79.6666666667 331 73 347 c 0
 66.3333333333 361 56.3333333333 368 43 368 c 0
 41 368 41 368 38 368 c 0
 34 368 30.3333333333 367 27 365 c 2
 -6 342 l 2
 -9.33333333333 340.666666667 -12.6666666667 340 -16 340 c 0
 -22 340 -25 342.666666667 -25 348 c 0
 -25 360.666666667 -15.6666666667 375.666666667 3 393 c 0
 44.3333333333 434.333333333 81.6666666667 455 115 455 c 0
 123.666666667 455 131.666666667 453.333333333 139 450 c 0
 159.666666667 438.666666667 170 403.333333333 170 344 c 2
 169 294 l 1
 201 327 l 2
 247.666666667 371.666666667 296 406.666666667 346 432 c 0
 383.333333333 450.666666667 417.666666667 460 449 460 c 0
 510.333333333 460 556.333333333 429 587 367 c 0
 601.666666667 337 609 306 609 274 c 0
 609 198 574.333333333 126.666666667 505 60 c 0
 453.666666667 14 404 -9 356 -9 c 0
 337.333333333 -9 320 -5 304 3 c 0
 285.333333333 13 276 28 276 48 c 0
 276 70 284 88 300 102 c 0
 314 114.666666667 328.666666667 121 344 121 c 0
 353.333333333 121 363 118.333333333 373 113 c 2
 406 89 l 2
 415.333333333 83 427.666666667 80 443 80 c 0
 456.333333333 80 468.666666667 83.3333333333 480 90 c 1
 482 92 l 1
 491.333333333 97.3333333333 500.666666667 111.333333333 510 134 c 0
 518.666666667 155.333333333 523 177 523 199 c 0
 523 227.666666667 515.666666667 256.666666667 501 286 c 0
 477.666666667 334 444 362.333333333 400 371 c 0
 398.666666667 371.666666667 397 372 395 372 c 0
 389 372.666666667 383 373 377 373 c 0
 339 373 298.666666667 356.666666667 256 324 c 0
 205.333333333 288 176.333333333 243.666666667 169 191 c 1
 163 43 l 2
 155.666666667 -112.333333333 136.666666667 -233 106 -319 c 1
 88 -379 54 -434 4 -484 c 0
 -16.6666666667 -504.666666667 -32.3333333333 -515 -43 -515 c 0
EndSplineSet
EndChar

StartChar: jy
Encoding: 42 60822 54
Width: 656
VWidth: 1024
GlyphClass: 2
Flags: HW
HStem: -250 21G<70 158> -8 70<194.447 339.607> 0 21G<427.5 487> 480 20G<70 158 398 487>
VStem: 70 88<-250 48 100.283 500> 398 89<110.909 500> 411 76<0.0175781 73>
AnchorPoint: "Top" 274 658 basechar 0
AnchorPoint: "Bottom" 348 0 basechar 0
LayerCount: 2
Fore
SplineSet
167 72 m 1x98
 178.923828125 43 182 -6.9169921875 246 -6.9169921875 c 3
 324.970843337 -6.9169921875 360.666666667 54.6666666667 428 122 c 1
 428 74 432.333333333 34.6666666667 441 4 c 0
 443 -4.66666666667 446.333333333 -9 451 -9 c 256
 455.666666667 -9 463.333333333 -5.66666666667 474 1 c 0
 490 11.6666666667 503.666666667 24.6666666667 515 40 c 0
 524.333333333 53.3333333333 529 63.6666666667 529 71 c 2
 523 98 l 2
 517.666666667 123.333333333 515 155.666666667 515 195 c 0
 515 215 517.333333333 259.333333333 522 328 c 0
 524.666666667 368.666666667 528.666666667 395.666666667 534 409 c 1
 550 429.666666667 558 443.666666667 558 451 c 0
 558 456.333333333 555.333333333 459 550 459 c 0
 543.333333333 459 533 454 519 444 c 0
 487.666666667 419.333333333 465.333333333 390 452 356 c 0
 444.666666667 338 439.666666667 312.333333333 437 279 c 0
 433.666666667 231 432 206 432 204 c 1
 432 204 432 204 432 204 c 257
 432 204 432 204 436 256 c 1
 432 205.333333333 420.755776247 167.976704261 400 146 c 0
 358.678603969 102.247933614 339.170898438 77 260 77 c 3
 202.260742188 77 169.702271629 133.477871169 169 293 c 1
 170 347 l 2
 170 401 160.666666667 434.666666667 142 448 c 0
 134.666666667 452.666666667 126 455 116 455 c 0
 80.6666666667 455 43 434.333333333 3 393 c 0
 -15.6666666667 374.333333333 -25 359.333333333 -25 348 c 0
 -25 342.666666667 -22.5 340 -17.5 340 c 128
 -12.5 340 -5.33333333333 342.666666667 4 348 c 2
 27 365 l 2
 32.3333333333 367.666666667 37.3333333333 369 42 369 c 0
 58 369 69.3333333333 359 76 339 c 0
 80.6666666667 323.666666667 83 299.666666667 83 267 c 2
 83 266 l 1
 82 172 l 2
 82 -47.3333333333 67 -213.333333333 37 -326 c 0
 21 -387.333333333 3 -429.666666667 -17 -453 c 0
 -18.3333333333 -454.333333333 -20 -456.333333333 -22 -459 c 0
 -42 -481 -52 -497 -52 -507 c 0
 -52 -512.333333333 -49.3333333333 -515 -44 -515 c 0
 -36 -515 -24.3333333333 -509 -9 -497 c 0
 19.6666666667 -473.666666667 47 -439.333333333 73 -394 c 0
 119.199327573 -313.447326283 139.99282209 -195 167 72 c 1x98
EndSplineSet
EndChar

StartChar: ny
Encoding: 43 60823 55
Width: 603
VWidth: 1024
GlyphClass: 2
Flags: HW
HStem: -8 66<141.159 297.313> 431 69<27 270>
AnchorPoint: "Top" 288 655.658 basechar 0
AnchorPoint: "Bottom" 291 -1.3418 basechar 0
LayerCount: 2
Fore
SplineSet
90 153 m 4x70
 90 220.333007812 131 295.666992188 213 379 c 5
 205.666992188 380.333007812 194 381 178 381 c 4
 174 381 174 381 170 381 c 4
 133.333007812 381 102.333007812 372.666992188 77 356 c 5
 23 311 l 6
 11.6669921875 304.333007812 3.3330078125 301 -2 301 c 6
 -2 301 -2 301 -3 301 c 4
 -7 301 -9 304.333007812 -9 311 c 4
 -7 319.666992188 -2.3330078125 328.333007812 5 337 c 4
 21 359.666992188 49 385.666992188 89 415 c 4
 138.333007812 450.333007812 187.666992188 468 237 468 c 5xb0
 402 458 l 5
 424 458 l 6
 457.333007812 459.333007812 486.333007812 461.666992188 511 465 c 4
 521.666992188 466.333007812 528.333007812 467 531 467 c 4
 535.666992188 467 538 465 538 461 c 4
 538 460 538 460 538 460 c 6
 538 451.333007812 532 440 520 426 c 4
 503.333007812 404 486 389.666992188 468 383 c 4
 462.666992188 381 452.333007812 379.333007812 437 378 c 4
 402.333007812 373.333007812 371.666992188 371 345 371 c 6
 290 371 l 6
 269.333007812 369 248.666992188 359.666992188 228 343 c 4
 194.666992188 311.666992188 178 270.666992188 178 220 c 4
 178 197.333007812 183 176.666992188 193 158 c 4
 205.666992188 132.666992188 224.333007812 112.666992188 249 98 c 4
 273 84 298.333007812 77 325 77 c 4
 372.333007812 77 417.666992188 95.3330078125 461 132 c 4
 482.333007812 151.333007812 494.333007812 162 497 164 c 4
 507.666992188 170.666992188 515.666992188 174 521 174 c 260
 526.333007812 174 529 171 529 165 c 6
 527 156 l 5
 519 138.666992188 499.666992188 116.666992188 469 90 c 4
 467 88.6669921875 465.333007812 87.3330078125 464 86 c 4
 392 22.6669921875 322.666992188 -9 256 -9 c 4
 206 -9 166.333007812 6.6669921875 137 38 c 4
 105.666992188 69.3330078125 90 107.666992188 90 153 c 4x70
EndSplineSet
EndChar

StartChar: bahebu
Encoding: 44 60824 56
Width: 0
VWidth: 0
GlyphClass: 4
Flags: W
HStem: -194 124<-309.03 -214.583>
VStem: -323 123<-179.661 -84.3391>
AnchorPoint: "Bottom" -262 0 mark 0
LayerCount: 2
Fore
SplineSet
-323 -132 m 4
 -323 -123 -322 -116 -319 -108 c 4
 -316 -100 -311 -94 -306 -88 c 4
 -301 -82 -294 -78 -286 -75 c 4
 -278 -72 -271 -70 -262 -70 c 260
 -253 -70 -246 -72 -238 -75 c 4
 -230 -78 -224 -82 -218 -88 c 4
 -212 -94 -208 -100 -205 -108 c 4
 -202 -116 -200 -123 -200 -132 c 4
 -200 -141 -202 -149 -205 -156 c 4
 -208 -163 -212 -170 -218 -176 c 4
 -224 -182 -230 -186 -238 -189 c 4
 -246 -192 -253 -194 -262 -194 c 260
 -271 -194 -278 -192 -286 -189 c 4
 -294 -186 -301 -182 -306 -176 c 4
 -311 -170 -316 -163 -319 -156 c 4
 -322 -149 -323 -141 -323 -132 c 4
EndSplineSet
EndChar

StartChar: smajibu
Encoding: 45 60825 57
Width: 416
VWidth: 988
GlyphClass: 2
Flags: W
HStem: 224 74<70 343>
VStem: 70 273<224 298>
LayerCount: 2
Fore
SplineSet
70 298 m 1
 343 298 l 1
 343 224 l 1
 70 224 l 1
 70 298 l 1
EndSplineSet
Substitution2: "Single Substitution lookup 60 subtable" smajibu.fina
Substitution2: "Single Substitution lookup 59 subtable" smajibu.fina
Substitution2: "Single Substitution lookup 58 subtable" smajibu.fina
Substitution2: "Single Substitution lookup 56 subtable" smajibu.medi
Substitution2: "Single Substitution lookup 55 subtable" smajibu.medi
Substitution2: "Single Substitution lookup 54 subtable" smajibu.medi
Substitution2: "Single Substitution lookup 53 subtable" smajibu.medi
Substitution2: "Single Substitution lookup 52 subtable" smajibu.medi
Substitution2: "Single Substitution lookup 51 subtable" smajibu.medi
Substitution2: "Single Substitution lookup 49 subtable" smajibu.init
Substitution2: "Single Substitution lookup 48 subtable" smajibu.init
Substitution2: "Single Substitution lookup 47 subtable" smajibu.init
EndChar

StartChar: tcenabu
Encoding: 47 60827 59
Width: 0
VWidth: 988
GlyphClass: 4
Flags: W
HStem: -169 74<-528 2>
AnchorPoint: "Bottom" -263 0 mark 0
LayerCount: 2
Fore
SplineSet
-528 -95 m 1
 2 -95 l 1
 2 -169 l 1
 -528 -169 l 1
 -528 -95 l 1
EndSplineSet
EndChar

StartChar: abu
Encoding: 52 60832 64
Width: 0
VWidth: 1024
GlyphClass: 4
Flags: HW
HStem: 582 234<-22.9126 23.791>
VStem: -33 67<624.5 816>
AnchorPoint: "Top" -0.105469 658.308 mark 0
LayerCount: 2
Fore
SplineSet
-65.0419921875 567.495117188 m 0
 -72.802734375 565.551757812 -77.6552734375 568.4609375 -79.5986328125 576.220703125 c 0
 -80.7333984375 580.747070312 -80.4931640625 585.275390625 -78.8779296875 589.802734375 c 0
 -78.0693359375 592.06640625 -73.2744140625 599.08203125 -64.576171875 610.909179688 c 0
 -33.818359375 652.739257812 -8.7958984375 692.775390625 32.13671875 743.376953125 c 1
 66.3154296875 783.895507812 l 2
 77.9521484375 797.806640625 88.134765625 806.541015625 96.8642578125 810.1015625 c 0
 117.625976562 815.301757812 134.067382812 809.741210938 138.345703125 792.658203125 c 1
 138.354492188 772.041992188 l 2
 137.38671875 767.676757812 135.690429688 763.470703125 133.266601562 759.428710938 c 0
 132.782226562 758.620117188 125.995117188 750.047851562 112.905273438 733.7109375 c 1
 74.1181640625 691.006835938 l 2
 49.068359375 663.427734375 -14.4130859375 612.3046875 -41.5244140625 584.724609375 c 0
 -51.3828125 574.697265625 -59.2236328125 568.953125 -65.0419921875 567.495117188 c 0
EndSplineSet
MultipleSubs2: "Multiple Substitution lookup 62 subtable" denpabu abu
EndChar

StartChar: ebu
Encoding: 53 60833 65
Width: 0
VWidth: 988
GlyphClass: 4
Flags: HW
HStem: 625 60<-122 122>
VStem: -122 244<625 685>
AnchorPoint: "Top" 0 657 mark 0
LayerCount: 2
Fore
SplineSet
158 708 m 0
 162.666992188 708 165 705.666992188 165 701 c 256
 165 696.333007812 162.666992188 690.333007812 158 683 c 0
 145.333007812 661.666992188 129.333007812 646.333007812 110 637 c 0
 73.3330078125 623 49.6669921875 616 -13 616 c 2
 -39 616 l 2
 -75.6669921875 616 -104.333007812 619 -125 625 c 0
 -142.333007812 631 -152 634.666992188 -154 636 c 0
 -156.666992188 637.333007812 -158 639.666992188 -158 643 c 0
 -158 650.333007812 -149.666992188 662.333007812 -133 679 c 0
 -115 697.666992188 -101.333007812 707 -92 707 c 0
 -88 707 -78 704.333007812 -62 699 c 0
 -42 693 0 690 17 690 c 0
 24 690 24 690 32 690 c 2
 66 690 l 2
 92 690 116 693.666992188 138 701 c 0
 150.666992188 705.666992188 157.333007812 708 158 708 c 0
EndSplineSet
MultipleSubs2: "Multiple Substitution lookup 63 subtable" denpabu ebu
EndChar

StartChar: ibu
Encoding: 54 60834 66
Width: 0
VWidth: 1024
GlyphClass: 4
Flags: HW
HStem: 596 124<-47.2603 47.6609>
VStem: -61 123<610.339 705.661>
AnchorPoint: "Top" 0 657 mark 0
LayerCount: 2
Fore
SplineSet
-18.3359375 714 m 2
 -9.0029296875 723.333007812 -2.6689453125 728 0.6640625 728 c 0
 4.6640625 727.333007812 8.6640625 724.666992188 12.6640625 720 c 2
 37.6640625 696 l 1
 60.6640625 673 l 2
 66.6640625 667 69.6640625 662.666992188 69.6640625 660 c 2
 69.6640625 660 69.6640625 660 69.6640625 659 c 0
 69.6640625 654.333007812 65.6640625 648.333007812 57.6640625 641 c 2
 19.6640625 603 l 2
 9.6640625 593 3.3310546875 588 0.6640625 588 c 256
 -2.0029296875 588 -5.0029296875 589.333007812 -8.3359375 592 c 0
 -8.3359375 594 -9.3359375 595.333007812 -11.3359375 596 c 2
 -59.3359375 644 l 2
 -66.0029296875 649.333007812 -69.3359375 654 -69.3359375 658 c 256
 -69.3359375 662 -65.0029296875 668 -56.3359375 676 c 2
 -18.3359375 714 l 2
EndSplineSet
MultipleSubs2: "Multiple Substitution lookup 64 subtable" denpabu ibu
Substitution2: "Single Substitution lookup 33 subtable" iy
Substitution2: "Single Substitution lookup 32 subtable" iy
Substitution2: "Single Substitution lookup 31 subtable" iy
Substitution2: "Single Substitution lookup 30 subtable" iy
Substitution2: "Single Substitution lookup 29 subtable" iy
Substitution2: "Single Substitution lookup 28 subtable" iy
Substitution2: "Single Substitution lookup 27 subtable" iy
Substitution2: "Single Substitution lookup 26 subtable" iy
Substitution2: "Single Substitution lookup 25 subtable" iy
Substitution2: "Single Substitution lookup 24 subtable" iy
Substitution2: "Single Substitution lookup 13 subtable" iy
Substitution2: "Single Substitution lookup 12 subtable" iy
Substitution2: "Single Substitution lookup 11 subtable" iy
Substitution2: "Single Substitution lookup 10 subtable" iy
Substitution2: "Single Substitution lookup 9 subtable" iy
Substitution2: "Single Substitution lookup 8 subtable" iy
Substitution2: "Single Substitution lookup 7 subtable" iy
Substitution2: "Single Substitution lookup 6 subtable" iy
Substitution2: "Single Substitution lookup 5 subtable" iy
Substitution2: "Single Substitution lookup 4 subtable" iy
EndChar

StartChar: obu
Encoding: 55 60835 67
Width: 0
VWidth: 1024
GlyphClass: 4
Flags: HW
HStem: 593 58<0.318359 62.3726> 644 58<-73.5814 -15.6011>
VStem: -127 49<595 641.178> 67 48<654.181 699>
AnchorPoint: "Top" 0 657 mark 0
LayerCount: 2
Fore
SplineSet
31.375 581.5 m 0x30
 1.97265625 581.5 -44 635.5 -76 635.5 c 0
 -96 635.5 -112.049804688 610.875976562 -117.125 604 c 2
 -140.375 572.5 l 2
 -142.375 570.5 -144.125 569.5 -145.625 569.5 c 0
 -149.625 569.5 -151.625 573 -151.625 580 c 0
 -151.625 589 -148.875 602 -143.375 619 c 0
 -122.875 672 -97.375 706 -66.875 721 c 0
 -61.375 723 -55.125 724 -48.125 724 c 0
 -17.1640625 724 30.3359375 673 60 673 c 0
 82 673 99.125 694.5 105.625 701.5 c 1
 126.625 731.5 l 1
 132.625 734.5 l 1
 136.625 734.5 138.625 730 138.625 721 c 0
 138.625 710 135.125 696 128.125 679 c 0
 100.125 614 67.875 581.5 31.375 581.5 c 0x30
EndSplineSet
MultipleSubs2: "Multiple Substitution lookup 65 subtable" denpabu obu
EndChar

StartChar: ubu
Encoding: 56 60836 68
Width: 0
VWidth: 1024
GlyphClass: 4
Flags: HW
HStem: 588 46<-56.5908 56.5908>
VStem: -118 50<646.724 705> 68 50<647.164 705>
AnchorPoint: "Top" 0 657 mark 0
LayerCount: 2
Fore
SplineSet
168.75 760 m 4
 179.25 769 186.25 773.5 189.75 773.5 c 4
 194.75 773.5 197.25 770.5 197.25 764.5 c 4
 197.25 762.5 196.25 759.5 194.25 755.5 c 4
 187.75 747 171.5 728 145.5 698.5 c 4
 114.65308832 663.067736584 60.3415974268 596.625 -16.625 596.625 c 4
 -43.125 596.625 -62.875 606.625 -75.875 626.625 c 4
 -82.375 636.625 -85.625 647.625 -85.625 659.625 c 4
 -85.625 692.125 -65.875 720.625 -26.375 745.125 c 4
 -11.375 754.625 1.625 759.375 12.625 759.375 c 4
 17.125 759.375 19.375 757.625 19.375 754.125 c 6
 19.375 753.375 l 6
 19.375 749.875 17.2413839357 745.220469582 4.625 735.875 c 4
 -23.6542188797 714.92743046 -12.861328125 665.177734375 26 664 c 4
 76.6728515625 664 95.2800813847 690.280081385 123 718 c 4
 140.5 735.5 155.75 749.5 168.75 760 c 4
EndSplineSet
MultipleSubs2: "Multiple Substitution lookup 66 subtable" denpabu ubu
Substitution2: "Single Substitution lookup 43 subtable" uy
Substitution2: "Single Substitution lookup 42 subtable" uy
Substitution2: "Single Substitution lookup 41 subtable" uy
Substitution2: "Single Substitution lookup 40 subtable" uy
Substitution2: "Single Substitution lookup 39 subtable" uy
Substitution2: "Single Substitution lookup 38 subtable" uy
Substitution2: "Single Substitution lookup 37 subtable" uy
Substitution2: "Single Substitution lookup 36 subtable" uy
Substitution2: "Single Substitution lookup 35 subtable" uy
Substitution2: "Single Substitution lookup 34 subtable" uy
Substitution2: "Single Substitution lookup 23 subtable" uy
Substitution2: "Single Substitution lookup 22 subtable" uy
Substitution2: "Single Substitution lookup 21 subtable" uy
Substitution2: "Single Substitution lookup 20 subtable" uy
Substitution2: "Single Substitution lookup 19 subtable" uy
Substitution2: "Single Substitution lookup 18 subtable" uy
Substitution2: "Single Substitution lookup 17 subtable" uy
Substitution2: "Single Substitution lookup 16 subtable" uy
Substitution2: "Single Substitution lookup 15 subtable" uy
Substitution2: "Single Substitution lookup 14 subtable" uy
EndChar

StartChar: ybu
Encoding: 57 60837 69
Width: 0
VWidth: 988
GlyphClass: 4
Flags: W
HStem: 566 42<-39.4491 38.5135> 707 43<-39.7211 38.5135>
VStem: -99 49<618.923 696.077> 49 50<618.923 696.077>
AnchorPoint: "Top" 0 657 mark 0
LayerCount: 2
Fore
SplineSet
-99 657 m 0
 -99 671 -96 684 -91 695 c 0
 -86 706 -79 716 -70 724 c 0
 -61 732 -51 739 -39 743 c 0
 -27 747 -14 750 -1 750 c 0
 13 750 25 747 37 743 c 0
 49 739 60 732 69 724 c 0
 78 716 86 706 91 695 c 0
 96 684 99 671 99 657 c 0
 99 643 96 631 91 620 c 0
 86 609 78 599 69 591 c 0
 60 583 49 577 37 573 c 0
 25 569 13 566 -1 566 c 0
 -14 566 -27 569 -39 573 c 0
 -51 577 -61 583 -70 591 c 0
 -79 599 -86 609 -91 620 c 0
 -96 631 -99 643 -99 657 c 0
-50 657 m 0
 -50 643 -46 631 -37 622 c 0
 -28 613 -15 608 0 608 c 0
 15 608 27 613 36 622 c 0
 45 631 49 643 49 657 c 0
 49 672 45 684 36 693 c 0
 27 702 15 707 0 707 c 0
 -15 707 -28 702 -37 693 c 0
 -46 684 -50 672 -50 657 c 0
EndSplineSet
MultipleSubs2: "Multiple Substitution lookup 67 subtable" denpabu ybu
EndChar

StartChar: aibu
Encoding: 58 60838 70
Width: 0
VWidth: 0
GlyphClass: 4
Flags: W
HStem: 569 39<-42 4.33428> 738 38<14.418 61>
VStem: -44 57<681.222 734.463> 6 58<611.127 667.254>
AnchorPoint: "Top" 0 657 mark 0
LayerCount: 2
Fore
SplineSet
13 711 m 0xe0
 13 705 16 699 21 694 c 0
 22 693 28 687 41 676 c 0
 47 670 52 663 57 656 c 0
 62 649 64 641 64 632 c 0
 64 623 61 615 56 607 c 0
 39 582 7 569 -42 569 c 1
 -42 608 l 1
 -10 608 6 618 6 635 c 0xd0
 6 640 4 646 -1 652 c 0
 -6 658 -12 664 -19 670 c 0
 -26 676 -32 683 -37 690 c 0
 -42 697 -44 705 -44 714 c 0
 -44 723 -42 731 -37 739 c 0
 -21 764 12 776 61 776 c 1
 61 738 l 1
 29 737 13 728 13 711 c 0xe0
EndSplineSet
MultipleSubs2: "Multiple Substitution lookup 68 subtable" denpabu aibu
Ligature2: "zlmVV subtable" abu ibu
LCarets2: 1 0
EndChar

StartChar: eibu
Encoding: 59 60839 71
Width: 0
VWidth: 1024
GlyphClass: 4
Flags: WO
HStem: 706.125 67.375<53.5374 141.5>
VStem: -85.625 282.875
AnchorPoint: "Top" 0 657 mark 0
LayerCount: 2
Fore
SplineSet
-57.125 610.125 m 0
 -67.625 601.125 -74.625 596.625 -78.125 596.625 c 0
 -83.125 596.625 -85.625 599.625 -85.625 605.625 c 0
 -85.625 607.625 -84.625 610.625 -82.625 614.625 c 0
 -76.125 623.125 -59.875 642.125 -33.875 671.625 c 0
 -3.0283203125 707.057617188 51.283203125 773.5 128.25 773.5 c 0
 154.75 773.5 174.5 763.5 187.5 743.5 c 0
 194 733.5 197.25 722.5 197.25 710.5 c 0
 197.25 678 177.5 649.5 138 625 c 0
 123 615.5 110 610.75 99 610.75 c 0
 94.5 610.75 92.25 612.5 92.25 616 c 2
 92.25 616.75 l 2
 92.25 620.25 94.3837890625 624.904296875 107 634.25 c 0
 135.279296875 655.197265625 124.486328125 704.947265625 85.625 706.125 c 0
 34.9521484375 706.125 16.3447265625 679.844726562 -11.375 652.125 c 0
 -28.875 634.625 -44.125 620.625 -57.125 610.125 c 0
EndSplineSet
MultipleSubs2: "Multiple Substitution lookup 69 subtable" denpabu eibu
Ligature2: "zlmVV subtable" ebu ibu
LCarets2: 1 0
EndChar

StartChar: oibu
Encoding: 60 60840 72
Width: 0
VWidth: 988
GlyphClass: 4
Flags: W
HStem: 578 201
VStem: -117 49<580 623.605> 61 39<636.19 683>
AnchorPoint: "Top" 0 657 mark 0
LayerCount: 2
Fore
SplineSet
-49 663 m 1
 -18 693 6 644 34 636 c 0
 54 631 60 661 61 683 c 1
 100 683 l 1
 99 640 88 603 62 586 c 0
 54 581 46 578 37 578 c 0
 18 578 4 592 -7 601 c 0
 -16 609 -29 624 -42 624 c 0
 -59 624 -68 609 -68 580 c 1
 -117 580 l 1
 -118 643 -72 726 -32 779 c 1
 7 750 l 1
 -14 721 -36 685 -49 663 c 1
EndSplineSet
MultipleSubs2: "Multiple Substitution lookup 70 subtable" denpabu oibu
Ligature2: "zlmVV subtable" obu ibu
LCarets2: 1 0
EndChar

StartChar: aubu
Encoding: 61 60841 73
Width: 0
VWidth: 988
GlyphClass: 4
Flags: W
HStem: 650 110<-39.529 8.47824>
VStem: -55 112<666.518 739.388>
AnchorPoint: "Top" 0 658 mark 0
LayerCount: 2
Fore
SplineSet
-36 555 m 2
 -39 558 -41 562 -41 567 c 0
 -41 569 -40 570 -39 572 c 0
 -38 574 -37 576 -35 578 c 0
 -32 581 -29 584 -25 589 c 0
 -21 594 -16 600 -12 606 c 0
 -8 612 -4 618 0 626 c 0
 4 634 7 642 9 651 c 1
 7 651 6 650 4 650 c 0
 2 650 1 650 -1 650 c 0
 -17 650 -30 655 -40 666 c 0
 -50 677 -55 691 -55 707 c 0
 -55 722 -50 735 -40 745 c 0
 -30 755 -17 760 0 760 c 0
 19 760 32 753 42 740 c 0
 52 727 57 710 57 689 c 0
 57 663 50 638 36 613 c 0
 22 588 2 566 -23 544 c 1
 -36 555 l 2
EndSplineSet
MultipleSubs2: "Multiple Substitution lookup 71 subtable" denpabu aubu
Ligature2: "zlmVV subtable" abu ubu
LCarets2: 1 0
EndChar

StartChar: iy
Encoding: 62 60842 74
Width: 645
VWidth: 1024
GlyphClass: 2
Flags: HW
HStem: 0 21G<8 80 419.5 495> 480 20G<203.84 299.16>
AnchorPoint: "Top" 253 658 basechar 0
AnchorPoint: "Bottom" 244 0 basechar 0
LayerCount: 2
Fore
SplineSet
244 342 m 1
 244 342 244 342 244 342 c 1
 244 342 l 1
 244 342 244 342 138 160 c 0
 131.333333333 149.333333333 128 143.666666667 128 143 c 1
 128 143 128 143 128 143 c 257
 128 143 128 143 129 144 c 2
 102 97 l 2
 96 85.6666666667 92 79.6666666667 90 79 c 2
 81 77 l 2
 77 77 73.3333333333 78 70 80 c 0
 65.3333333333 83.3333333333 56.6666666667 94 44 112 c 1
 34 122 l 2
 32.6666666667 122.666666667 31.3333333333 123 30 123 c 0
 24.6666666667 123 16.6666666667 119.333333333 6 112 c 0
 -22.6666666667 92.6666666667 -40.6666666667 72 -48 50 c 0
 -48 48 -48 48 -48 46 c 0
 -48 42 -42.6666666667 33 -32 19 c 0
 -20 0.333333333333 -4.66666666667 -9 14 -9 c 0
 17.3333333333 -9 20.6666666667 -8.66666666667 24 -8 c 0
 63.3333333333 0.666666666667 100.333333333 27 135 71 c 0
 149 88.3333333333 173.333333333 127 208 187 c 2
 255 269 l 1
 276 305 l 1
 279 297 279 297 282 289 c 0
 339.333333333 148.333333333 368.333333333 77 369 75 c 2
 373 65 l 2
 393.666666667 15.6666666667 421.333333333 -9 456 -9 c 1
 522 35 564.333333333 69.3333333333 583 94 c 0
 590.333333333 105.333333333 594 113.666666667 594 119 c 256
 594 124.333333333 590.666666667 127 584 127 c 0
 569.333333333 127 547 108.666666667 517 72 c 1
 511 66 l 2
 510 66 510 66 509 66 c 0
 507 66 503.333333333 66.6666666667 498 68 c 0
 477.333333333 74.6666666667 459.133481014 99.3860802366 447 129 c 2
 329 417 l 1
 258 385 l 0
 244 342 l 1
EndSplineSet
EndChar

StartChar: uy
Encoding: 63 60843 75
Width: 645
VWidth: 1024
GlyphClass: 2
Flags: HW
HStem: 0 21G<206.84 302.2> 480 20G<11 86.5 427 499>
AnchorPoint: "Bottom" 256 0 basechar 0
AnchorPoint: "Top" 256 658 basechar 0
LayerCount: 2
Fore
SplineSet
287 1 m 1
 232 -6.9169921875 l 25
 232 -6.9169921875 198 -9 207 -5 c 1
 198 25 l 2
 175.333333333 101 147.666666667 180 115 262 c 0
 98.3333333333 303.333333333 86.3333333333 330 79 342 c 0
 65.6666666667 364.666666667 52.3333333333 376 39 376 c 0
 34.3333333333 376 28.6666666667 372.333333333 22 365 c 0
 7.33333333333 352.333333333 -4.33333333333 346 -13 346 c 0
 -19 346 -22 349 -22 355 c 0
 -22 363.666666667 -15 376.333333333 -1 393 c 0
 34.3333333333 431 64.6666666667 450 90 450 c 0
 121.333333333 450 148 423 170 369 c 0
 178.666666667 349.666666667 183.666666667 338.333333333 185 335 c 1
 267 417 338 458 398 458 c 0
 422 458 445 451 467 437 c 1
 493 414 l 1
 515.666666667 386.666666667 527 354.666666667 527 318 c 0
 527 288.666666667 519.333333333 256.333333333 504 221 c 0
 468 139.666666667 287 1 287 1 c 1
441 245 m 0
 441 293 419 331.333333333 375 360 c 0
 357 370 337.666666667 375 317 375 c 0
 293.666666667 375 269 368.333333333 243 355 c 0
 227 347 213.333333333 337.333333333 202 326 c 0
 196 320 193 316.666666667 193 316 c 0
 193 314 193.666666667 311.666666667 195 309 c 2
 201 294 l 2
 229.666666667 218.666666667 251 158 265 112 c 2
 285 43 l 1
 287.666666667 43.6666666667 293.333333333 47 302 53 c 2
 330 72 l 2
 380 108.666666667 412 143.666666667 426 177 c 0
 436 200.333333333 441 223 441 245 c 0
EndSplineSet
EndChar

StartChar: uniEDAC
Encoding: 272 60844 76
Width: 446
VWidth: 988
GlyphClass: 2
Flags: W
HStem: 0 69<132 406> 730 20G<188.958 277>
VStem: 188 89<212.256 750>
AnchorPoint: "Top" 230 659 basechar 0
AnchorPoint: "Bottom" 228 0 basechar 0
LayerCount: 2
Fore
SplineSet
132 69 m 0
 406 69 l 1
 406 0 l 1
 29 0 l 1
 29 37 l 2
 29 48 30.0631501485 53.8825866241 32 55 c 0
 136 115 187.874648581 218.83413022 188 278 c 2
 189 750 l 0
 277 750 l 1
 277 324 l 2
 277 256.750789571 242 140 174 83 c 0
 132 69 l 0
EndSplineSet
EndChar

StartChar: seplimeabu
Encoding: 68 60848 80
Width: 548
VWidth: 988
GlyphClass: 3
Flags: W
HStem: 0 21G<70 155> 429 71<155 487>
VStem: 70 85<0 429>
AnchorPoint: "Bottom" 305 0 basechar 0
LayerCount: 2
Fore
SplineSet
487 429 m 1
 155 429 l 1
 155 0 l 1
 70 0 l 1
 70 500 l 1
 487 500 l 1
 487 429 l 1
EndSplineSet
Ligature2: "zlmSF subtable" slakabu seplimeabu
LCarets2: 1 0
EndChar

StartChar: seplimeebu
Encoding: 69 60849 81
Width: 548
VWidth: 988
GlyphClass: 3
Flags: W
HStem: 0 21G<70 155> 225 71<155 487> 480 20G<70 155>
VStem: 70 85<0 225 296 500>
AnchorPoint: "Bottom" 307 0 basechar 0
LayerCount: 2
Fore
SplineSet
487 225 m 1
 155 225 l 1
 155 0 l 1
 70 0 l 1
 70 500 l 1
 155 500 l 0
 155 296 l 0
 487 296 l 1
 487 225 l 1
EndSplineSet
Ligature2: "zlmSF subtable" slakabu seplimeebu
EndChar

StartChar: seplimeibu
Encoding: 70 60850 82
Width: 548
VWidth: 988
GlyphClass: 3
Flags: W
HStem: 0 21G<70 155 402 487> 429 71<155 402>
VStem: 70 85<0 429> 402 85<0 429>
AnchorPoint: "Bottom" 285 0 basechar 0
LayerCount: 2
Fore
SplineSet
155 429 m 1
 155 0 l 1
 70 0 l 1
 70 429 l 1
 70 500 l 1
 487 500 l 1
 487 429 l 1
 487 0 l 1
 402 0 l 1
 402 429 l 1
 155 429 l 1
EndSplineSet
Ligature2: "zlmSF subtable" slakabu seplimeibu
EndChar

StartChar: seplimeobu
Encoding: 71 60851 83
Width: 548
VWidth: 988
GlyphClass: 3
Flags: W
HStem: 0 71<70 402> 480 20G<402 487>
VStem: 402 85<71 500>
AnchorPoint: "Bottom" 278 0 basechar 0
LayerCount: 2
Fore
SplineSet
70 71 m 1
 402 71 l 1
 402 500 l 1
 487 500 l 1
 487 0 l 1
 70 0 l 1
 70 71 l 1
EndSplineSet
Ligature2: "zlmSF subtable" slakabu seplimeobu
EndChar

StartChar: seplimeubu
Encoding: 72 60852 84
Width: 548
VWidth: 988
GlyphClass: 3
Flags: W
HStem: 0 71<155 402> 480 20G<70 155 402 487>
VStem: 70 85<71 500> 402 85<71 500>
AnchorPoint: "Bottom" 286 0 basechar 0
LayerCount: 2
Fore
SplineSet
155 71 m 1
 402 71 l 1
 402 500 l 1
 487 500 l 1
 487 71 l 1
 487 0 l 1
 70 0 l 1
 70 71 l 1
 70 500 l 1
 155 500 l 1
 155 71 l 1
EndSplineSet
Ligature2: "zlmSF subtable" slakabu seplimeubu
EndChar

StartChar: seplimeybu
Encoding: 73 60853 85
Width: 548
VWidth: 988
GlyphClass: 3
Flags: W
HStem: 0 21G<234 319> 225 71<70 234 319 487> 480 20G<234 319>
VStem: 234 85<0 224 296 500>
AnchorPoint: "Bottom" 277 0 basechar 0
LayerCount: 2
Fore
SplineSet
487 225 m 1
 319 225 l 1
 319 0 l 1
 234 0 l 1
 234 224 l 0
 70 224 l 0
 70 296 l 0
 234 296 l 0
 234 500 l 1
 319 500 l 0
 319 296 l 0
 487 296 l 1
 487 225 l 1
EndSplineSet
Ligature2: "zlmSF subtable" slakabu seplimeybu
EndChar

StartChar: seplimeaibu
Encoding: 74 60854 86
Width: 548
VWidth: 988
GlyphClass: 3
Flags: W
HStem: 0 71<155 487> 429 71<155 487>
VStem: 70 85<71 429>
AnchorPoint: "LigaBottom" 287 0 basechar 0
LayerCount: 2
Fore
SplineSet
487 71 m 1
 487 0 l 1
 155 0 l 1
 70 0 l 1
 70 500 l 1
 155 500 l 1
 487 500 l 1
 487 429 l 1
 155 429 l 1
 155 71 l 1
 487 71 l 1
EndSplineSet
Ligature2: "zlmSFF subtable" slakabu seplimeaibu
Ligature2: "zlmFF subtable" seplimeabu seplimeibu
EndChar

StartChar: seplimeeibu
Encoding: 75 60855 87
Width: 427
VWidth: 988
GlyphClass: 3
Flags: W
HStem: -8 63<122.13 277.939> 443 65<156.164 311.026>
VStem: 46 84<327.196 417.268> 307 82<83.229 182.832>
AnchorPoint: "Bottom" 225 0 basechar 0
LayerCount: 2
Fore
SplineSet
361 418 m 2
 357 411 351 407 343 407 c 0
 338 407 332 409 326 413 c 0
 320 417 312 421 303 425 c 0
 294 429 284 433 271 437 c 0
 258 441 243 443 226 443 c 0
 211 443 198 441 186 437 c 0
 174 433 164 428 156 421 c 0
 148 414 141 407 137 398 c 0
 133 389 130 380 130 370 c 0
 130 357 134 347 141 338 c 0
 148 329 158 322 170 316 c 0
 182 310 197 304 212 299 c 0
 227 294 244 289 260 284 c 0
 276 279 292 273 307 266 c 0
 322 259 337 251 349 241 c 0
 361 231 371 219 378 205 c 0
 385 191 389 173 389 153 c 0
 389 130 385 109 377 89 c 0
 369 69 356 52 340 38 c 0
 324 24 304 12 281 4 c 0
 258 -4 231 -8 200 -8 c 0
 165 -8 133 -2 105 9 c 0
 77 20 53 35 33 53 c 1
 54 86 l 2
 57 90 59 94 63 96 c 0
 67 98 71 100 77 100 c 0
 83 100 89 98 96 93 c 0
 103 88 111 84 120 78 c 0
 129 72 140 67 154 62 c 0
 168 57 185 55 205 55 c 0
 222 55 237 58 250 62 c 0
 263 66 273 72 282 80 c 0
 291 88 297 96 301 106 c 0
 305 116 307 127 307 138 c 0
 307 152 303 163 296 172 c 0
 289 181 278 189 266 195 c 0
 254 201 241 207 225 212 c 0
 209 217 193 222 177 227 c 0
 161 232 145 238 129 245 c 0
 113 252 99 261 87 271 c 0
 75 281 65 294 58 309 c 0
 51 324 46 342 46 363 c 0
 46 382 50 400 58 418 c 0
 66 436 78 452 93 465 c 0
 108 478 127 489 149 497 c 0
 171 505 196 508 224 508 c 0
 257 508 287 503 313 493 c 0
 339 483 362 468 381 450 c 1
 361 418 l 2
EndSplineSet
Ligature2: "zlmSFF subtable" slakabu seplimeeibu
Ligature2: "zlmFF subtable" seplimeebu seplimeibu
EndChar

StartChar: seplimeoibu
Encoding: 76 60856 88
Width: 548
VWidth: 988
GlyphClass: 3
Flags: W
HStem: 0 71<70 402> 429 71<70 402>
VStem: 402 85<71 429>
AnchorPoint: "Bottom" 283 0 basechar 0
LayerCount: 2
Fore
SplineSet
70 71 m 1
 402 71 l 1
 402 429 l 1
 70 429 l 1
 70 500 l 1
 402 500 l 1
 487 500 l 1
 487 0 l 1
 402 0 l 1
 70 0 l 1
 70 71 l 1
EndSplineSet
Ligature2: "zlmSFF subtable" slakabu seplimeoibu
Ligature2: "zlmFF subtable" seplimeobu seplimeibu
EndChar

StartChar: seplimeaubu
Encoding: 77 60857 89
Width: 492
VWidth: 988
GlyphClass: 3
Flags: W
HStem: 0 21G<11 93.5 392.5 481> 480 20G<18 106.5 390.5 474>
AnchorPoint: "Bottom" 244 0 basechar 0
LayerCount: 2
Fore
SplineSet
481 0 m 1
 396 0 l 2
 389 0 383 2 379 6 c 0
 375 10 372 13 369 18 c 2
 243 214 l 1
 242 209 240 205 239 201 c 0
 238 197 236 193 233 189 c 2
 116 18 l 2
 113 13 109 10 105 6 c 0
 101 2 97 0 90 0 c 2
 11 0 l 1
 187 257 l 1
 18 500 l 1
 103 500 l 2
 110 500 116 499 119 497 c 0
 122 495 124 491 127 487 c 2
 250 299 l 1
 253 309 257 318 263 327 c 2
 371 485 l 2
 374 490 377 493 380 496 c 0
 383 499 388 500 393 500 c 2
 474 500 l 1
 305 261 l 1
 481 0 l 1
EndSplineSet
Ligature2: "zlmSFF subtable" slakabu seplimeaubu
Ligature2: "zlmFF subtable" seplimeabu seplimeubu
EndChar

StartChar: uniEDBC
Encoding: 278 60860 92
Width: 446
VWidth: 988
GlyphClass: 2
Flags: W
HStem: -250 21G<158 246> 431 69<29 302>
VStem: 158 88<-250 260.403>
AnchorPoint: "Top" 208 658 basechar 0
AnchorPoint: "Bottom" 203 0 basechar 0
LayerCount: 2
Fore
SplineSet
302 431 m 0
 29 431 l 1
 29 500 l 1
 406 500 l 1
 406 464 l 2
 406 453 404.936849852 446.117413376 403 445 c 0
 299 385 246 222 246 222 c 2
 246 -250 l 0
 158 -250 l 1
 158 176 l 2
 158 176 192 360 260 417 c 0
 302 431 l 0
EndSplineSet
EndChar

StartChar: bahebu_bahebu
Encoding: 78 -1 96
Width: 0
VWidth: 0
GlyphClass: 4
Flags: W
HStem: -194 124<-403.03 -308.583 -226.03 -131.583>
VStem: -417 123<-179.661 -84.3391> -240 123<-179.661 -84.3391>
AnchorPoint: "Bottom" -267 0 mark 0
LayerCount: 2
Fore
SplineSet
-417 -132 m 4
 -417 -123 -416 -116 -413 -108 c 4
 -410 -100 -405 -94 -400 -88 c 4
 -395 -82 -388 -78 -380 -75 c 4
 -372 -72 -365 -70 -356 -70 c 260
 -347 -70 -340 -72 -332 -75 c 4
 -324 -78 -318 -82 -312 -88 c 4
 -306 -94 -302 -100 -299 -108 c 4
 -296 -116 -294 -123 -294 -132 c 4
 -294 -141 -296 -149 -299 -156 c 4
 -302 -163 -306 -170 -312 -176 c 4
 -318 -182 -324 -186 -332 -189 c 4
 -340 -192 -347 -194 -356 -194 c 260
 -365 -194 -372 -192 -380 -189 c 4
 -388 -186 -395 -182 -400 -176 c 4
 -405 -170 -410 -163 -413 -156 c 4
 -416 -149 -417 -141 -417 -132 c 4
-240 -132 m 4
 -240 -123 -239 -116 -236 -108 c 4
 -233 -100 -228 -94 -223 -88 c 4
 -218 -82 -211 -78 -203 -75 c 4
 -195 -72 -188 -70 -179 -70 c 260
 -170 -70 -163 -72 -155 -75 c 4
 -147 -78 -141 -82 -135 -88 c 4
 -129 -94 -125 -100 -122 -108 c 4
 -119 -116 -117 -123 -117 -132 c 4
 -117 -141 -119 -149 -122 -156 c 4
 -125 -163 -129 -170 -135 -176 c 4
 -141 -182 -147 -186 -155 -189 c 4
 -163 -192 -170 -194 -179 -194 c 260
 -188 -194 -195 -192 -203 -189 c 4
 -211 -186 -218 -182 -223 -176 c 4
 -228 -170 -233 -163 -236 -156 c 4
 -239 -149 -240 -141 -240 -132 c 4
EndSplineSet
Ligature2: "zlmBahebu subtable" bahebu bahebu
LCarets2: 1 0
EndChar

StartChar: bahebu_bahebu_bahebu
Encoding: 79 -1 97
Width: 0
VWidth: 0
GlyphClass: 4
Flags: W
HStem: -313 124<-315.03 -220.583> -189 124<-404.03 -309.583 -227.03 -132.583>
VStem: -418 123<-174.661 -79.3391> -329 123<-298.661 -203.339> -241 123<-174.661 -79.3391>
AnchorPoint: "Bottom" -268 0 mark 0
LayerCount: 2
Fore
SplineSet
-329 -251 m 0x90
 -329 -242 -328 -235 -325 -227 c 0
 -322 -219 -317 -213 -312 -207 c 0
 -307 -201 -300 -197 -292 -194 c 0
 -284 -191 -277 -189 -268 -189 c 256
 -259 -189 -252 -191 -244 -194 c 0
 -236 -197 -230 -201 -224 -207 c 0
 -218 -213 -214 -219 -211 -227 c 0
 -208 -235 -206 -242 -206 -251 c 0
 -206 -260 -208 -268 -211 -275 c 0
 -214 -282 -218 -289 -224 -295 c 0
 -230 -301 -236 -305 -244 -308 c 0
 -252 -311 -259 -313 -268 -313 c 256
 -277 -313 -284 -311 -292 -308 c 0
 -300 -305 -307 -301 -312 -295 c 0
 -317 -289 -322 -282 -325 -275 c 0
 -328 -268 -329 -260 -329 -251 c 0x90
-418 -127 m 0x60
 -418 -118 -417 -111 -414 -103 c 0
 -411 -95 -406 -89 -401 -83 c 0
 -396 -77 -389 -73 -381 -70 c 0
 -373 -67 -366 -65 -357 -65 c 256
 -348 -65 -341 -67 -333 -70 c 0
 -325 -73 -319 -77 -313 -83 c 0
 -307 -89 -303 -95 -300 -103 c 0
 -297 -111 -295 -118 -295 -127 c 0
 -295 -136 -297 -144 -300 -151 c 0
 -303 -158 -307 -165 -313 -171 c 0
 -319 -177 -325 -181 -333 -184 c 0
 -341 -187 -348 -189 -357 -189 c 256
 -366 -189 -373 -187 -381 -184 c 0
 -389 -181 -396 -177 -401 -171 c 0
 -406 -165 -411 -158 -414 -151 c 0
 -417 -144 -418 -136 -418 -127 c 0x60
-241 -127 m 0x48
 -241 -118 -240 -111 -237 -103 c 0
 -234 -95 -229 -89 -224 -83 c 0
 -219 -77 -212 -73 -204 -70 c 0
 -196 -67 -189 -65 -180 -65 c 256
 -171 -65 -164 -67 -156 -70 c 0
 -148 -73 -142 -77 -136 -83 c 0
 -130 -89 -126 -95 -123 -103 c 0
 -120 -111 -118 -118 -118 -127 c 0
 -118 -136 -120 -144 -123 -151 c 0
 -126 -158 -130 -165 -136 -171 c 0
 -142 -177 -148 -181 -156 -184 c 0
 -164 -187 -171 -189 -180 -189 c 256
 -189 -189 -196 -187 -204 -184 c 0
 -212 -181 -219 -177 -224 -171 c 0
 -229 -165 -234 -158 -237 -151 c 0
 -240 -144 -241 -136 -241 -127 c 0x48
EndSplineSet
Ligature2: "zlmBahebu subtable" bahebu bahebu bahebu
LCarets2: 2 0 0
EndChar

StartChar: smajibu.init
Encoding: 48 -1 98
Width: 416
VWidth: 988
GlyphClass: 2
Flags: W
HStem: 224 74<70 427>
LayerCount: 2
Fore
SplineSet
70 298 m 1
 427 298 l 1
 427 224 l 1
 70 224 l 1
 70 298 l 1
EndSplineSet
EndChar

StartChar: smajibu.medi
Encoding: 49 -1 99
Width: 416
VWidth: 988
GlyphClass: 2
Flags: W
HStem: 224 74<-10 427>
LayerCount: 2
Fore
SplineSet
-10 298 m 1
 427 298 l 1
 427 224 l 1
 -10 224 l 1
 -10 298 l 1
EndSplineSet
EndChar

StartChar: smajibu.fina
Encoding: 50 -1 100
Width: 416
VWidth: 988
GlyphClass: 2
Flags: W
HStem: 224 74<-10 343>
LayerCount: 2
Fore
SplineSet
-10 298 m 1
 343 298 l 1
 343 224 l 1
 -10 224 l 1
 -10 298 l 1
EndSplineSet
EndChar

StartChar: denpabu.cas
Encoding: 51 -1 101
Width: 316
VWidth: 1024
Flags: HW
HStem: 306 87<186.292 368.76> 480 20G<463.103 499.103>
VStem: 177.103 322
AnchorPoint: "Top" 121.103 658.658 basechar 0
AnchorPoint: "Bottom" 127.103 -5.91699 basechar 0
LayerCount: 2
Fore
SplineSet
437 435 m 4
 451 447 460.333007812 453 465 453 c 4
 471.666992188 453 475 449 475 441 c 4
 475 438.333007812 473.666992188 434.333007812 471 429 c 4
 462.333007812 417.666992188 440.666992188 392.333007812 406 353 c 4
 356.666992188 296.333007812 314 252.333007812 278 221 c 4
 224 175 172.666992188 152 124 152 c 4
 88.6669921875 152 62.3330078125 165.333007812 45 192 c 4
 36.3330078125 205.333007812 32 220 32 236 c 4
 32 279.333007812 58.3330078125 317.333007812 111 350 c 4
 131 362.666992188 148.333007812 369 163 369 c 0
 169 369 172 366.666992188 172 362 c 2
 172 361 l 2
 172 356.333007812 163.666992188 347.666992188 147 335 c 4
 129 321.666992188 120 303.333007812 120 280 c 5
 124 255 l 5
 130.666992188 235.666992188 145 225.666992188 167 225 c 4
 189 225 219 240 257 270 c 4
 277.666992188 286 317.333007812 322.333007812 376 379 c 4
 399.333007812 402.333007812 419.666992188 421 437 435 c 4
EndSplineSet
EndChar

StartChar: yhy.cas
Encoding: 67 -1 109
Width: 301
VWidth: 1024
Flags: W
VStem: 84 87<86.5723 406.187>
AnchorPoint: "Top" 116 656 basechar 0
AnchorPoint: "Bottom" 119 0 basechar 0
LayerCount: 2
Fore
SplineSet
150 453 m 1
 158.520331442 451.813922577 166 445 168 436 c 24
 175 404 171 369.333333333 171 352 c 0
 171 289.333333333 170.666666667 242.666666667 170 212 c 0
 168.666666667 163.333333333 165 129.333333333 159 110 c 0
 153 91.3333333333 143.666666667 72.6666666667 131 54 c 0
 113.666666667 30 97 13 81 3 c 0
 69.6666666667 -5 61 -9 55 -9 c 0
 50.3333333333 -9 48 -7 48 -3 c 0
 48 5 55.3333333333 19.3333333333 70 40 c 0
 78.6666666667 54.6666666667 83 88.6666666667 83 142 c 2
 84 303 l 3
 84 326.005127093 86 421.598178487 150 453 c 1
EndSplineSet
EndChar
